<svg width="49" height="54" viewBox="0 0 49 54" fill="none" xmlns="http://www.w3.org/2000/svg">
<path d="M27.2219 33.1756L27.2218 33.1753C27.1602 32.8755 26.9959 32.6632 26.7824 32.5401C26.5722 32.4189 26.3234 32.3892 26.0946 32.4332C25.8659 32.4772 25.6469 32.597 25.4997 32.7881C25.3501 32.9822 25.2825 33.2402 25.3438 33.5396C26.1619 37.7537 28.5894 40.4762 30.7166 42.1161C28.7187 45.508 25.9437 48.4338 22.5327 50.584C18.704 43.2482 18.8505 34.3777 23.0012 27.1829C27.2242 19.8769 35.0245 15.2777 43.4364 15.065C51.5336 29.8846 42.3584 48.2425 25.698 50.6939C30.7211 46.777 34.1855 41.2052 35.5131 34.9989C37.1667 34.9497 39.338 34.4985 41.3621 32.8665C41.6077 32.6813 41.7258 32.4415 41.7381 32.196C41.7502 31.9541 41.6593 31.7197 41.5123 31.5374C41.3652 31.3551 41.1548 31.2158 40.9151 31.1729C40.6717 31.1293 40.4092 31.1873 40.1709 31.3811C38.6878 32.5512 37.1237 32.9587 35.84 33.0454C36.0061 31.8763 36.0892 30.6811 36.0892 29.486C36.0892 29.1771 35.9685 28.9351 35.7803 28.7723C35.5951 28.6122 35.3532 28.5357 35.1167 28.5357C34.8802 28.5357 34.6383 28.6122 34.4531 28.7723C34.2649 28.9351 34.1443 29.1771 34.1443 29.486C34.1443 33.3019 33.2652 37.0298 31.6225 40.381C29.8536 38.9533 27.925 36.6353 27.2219 33.1756ZM20.0541 20.6287L20.0605 20.635L20.0676 20.6406C21.156 21.4944 22.1875 22.463 23.1342 23.5184C22.4896 24.3768 21.9009 25.2644 21.341 26.2083L21.3401 26.2099C17.2982 33.2218 16.7675 41.6973 19.747 49.1187C16.6289 46.6739 14.1695 43.5384 12.5483 40.0203C14.6783 38.381 17.1124 35.6561 17.9618 31.4056C18.0229 31.0996 17.9561 30.8364 17.807 30.6382C17.6601 30.4429 17.4408 30.3205 17.2109 30.2762C16.9811 30.232 16.7315 30.2642 16.5211 30.3901C16.3077 30.5177 16.1447 30.7359 16.0836 31.042L16.0835 31.0422C15.4122 34.431 13.5235 36.7149 11.7597 38.1705C10.746 35.4083 10.197 32.4757 10.197 29.486C10.197 28.946 9.76445 28.5128 9.22456 28.5128C8.93082 28.5128 8.70723 28.6075 8.54961 28.7791C8.39676 28.9455 8.32096 29.1681 8.28443 29.3977C8.22557 29.7675 8.26254 30.2087 8.29409 30.5742C7.45894 30.2496 6.72052 29.7982 6.03127 29.2188L6.02954 29.2173C5.7916 29.0233 5.52941 28.963 5.2856 29.0036C5.0456 29.0437 4.83391 29.1796 4.68455 29.3598C4.53521 29.5401 4.44142 29.7729 4.44831 30.0152C4.4553 30.2614 4.56607 30.5053 4.8036 30.6993C5.88934 31.6047 7.09475 32.2756 8.44782 32.6813C9.22683 39.0201 12.2381 44.8837 16.9052 49.2238C14.317 48.0393 12.0173 46.4349 9.93866 44.4092C2.30269 36.8871 0.564558 24.9959 5.74647 15.5254L6.71737 15.5809C6.71749 15.5809 6.71761 15.5809 6.71773 15.5809C11.5586 15.8838 16.1577 17.6394 19.9407 20.5453C19.9654 20.568 19.9946 20.5874 20.0121 20.5991L20.016 20.6017C20.028 20.6096 20.0368 20.6155 20.0443 20.621C20.0518 20.6265 20.0543 20.6289 20.0541 20.6287ZM31.6017 4.56839L31.6006 4.56898C30.0305 5.45851 28.5753 6.51973 27.2625 7.69717C25.6834 5.06401 23.6638 2.72713 21.2615 0.773334C21.009 0.55764 20.6457 0.48297 20.316 0.627943C14.1601 3.00802 9.03535 7.69381 6.14768 13.6299C6.08204 13.6261 6.01466 13.6215 5.9464 13.6168C5.69346 13.5995 5.42841 13.5814 5.19486 13.6011C4.85715 13.6296 4.52965 13.7398 4.34201 14.0769C-0.31414 22.1717 -0.314096 32.1978 4.3427 40.2622L4.34278 40.2624C8.14139 46.8237 14.5443 51.4234 21.9893 52.8648C21.9895 52.8649 21.9896 52.8649 21.9898 52.8649L22.1412 52.8952L22.1565 52.8983L22.1721 52.8981C31.5755 52.8062 40.1236 47.9312 44.8418 39.8052L44.8421 39.8047C49.4986 31.7101 49.4989 21.684 44.8426 13.6195C44.6642 13.299 44.3407 13.1165 44.0114 13.1165V13.1164L44.0041 13.1167L41.5935 13.2344C39.3311 9.68028 36.2249 6.67232 32.5741 4.5708C32.2796 4.38784 31.9174 4.39286 31.6017 4.56839ZM20.4979 2.61686C22.6485 4.4586 24.4235 6.61791 25.8234 9.06714C24.0854 10.9048 22.5809 12.9763 21.4296 15.2581C21.3545 14.2145 21.2484 13.1233 21.0928 12.1268C20.9097 10.9549 20.6557 9.89753 20.2933 9.20355C20.152 8.92976 19.9339 8.77118 19.6926 8.71413C19.4551 8.65801 19.2059 8.70241 18.9975 8.81219C18.7891 8.92198 18.6116 9.10238 18.5249 9.33095C18.437 9.56307 18.4474 9.83311 18.5962 10.1056C18.7465 10.3925 18.8838 10.828 19.0051 11.3826C19.126 11.9355 19.2291 12.5971 19.3144 13.3296C19.4754 14.7117 19.5724 16.339 19.6084 17.9496C16.2293 15.6921 12.3224 14.2578 8.24004 13.7821C10.8717 8.77855 15.2447 4.77911 20.4979 2.61686ZM21.7062 19.4968C23.5544 14.0535 27.2341 9.4745 32.1011 6.52104C35.0296 8.29486 37.5581 10.694 39.493 13.5249C36.8159 14.0086 34.2488 14.8733 31.869 16.1196C31.9719 14.3603 32.2383 12.9464 32.6362 11.9506C32.7508 11.6679 32.7308 11.4001 32.6208 11.1794C32.5124 10.9618 32.3213 10.7985 32.1057 10.7082C31.8901 10.6179 31.6403 10.5967 31.4109 10.6769C31.1782 10.7582 30.9797 10.9396 30.8656 11.228C30.252 12.6724 29.9471 14.7098 29.9112 17.2691C27.8717 18.579 26.0037 20.1479 24.3911 22.004C23.5557 21.0966 22.644 20.2691 21.7062 19.4968Z" fill="#9BC156" stroke="#9BC156" stroke-width="0.3"/>
</svg>
