<svg width="76" height="20" viewBox="0 0 76 20" fill="none" xmlns="http://www.w3.org/2000/svg">
<path d="M4.54212 0.0233203V1.00623C4.35797 0.985788 4.17276 0.975983 3.98746 0.976862C2.02648 0.976862 0.990532 2.27762 0.990532 4.73834V7.23707H2.80738V8.15865H0.987038V18.9439H0V4.62692C0 3.0446 0.414905 1.79739 1.19929 1.02091C1.88411 0.345486 2.82048 0 3.98396 0C4.18661 0 4.36742 0.00777343 4.54212 0.0233203Z" fill="white"/>
<path d="M52.0554 0.0605469H51.0684V18.9863H52.0554V0.0605469Z" fill="white"/>
<path d="M59.7106 2.54439C59.5827 2.38696 59.4877 2.20594 59.4311 2.01187C59.3745 1.8178 59.3576 1.61454 59.3812 1.41393C59.4048 1.21331 59.4685 1.01934 59.5686 0.843287C59.6687 0.667237 59.8032 0.512625 59.9643 0.388442C60.1254 0.264258 60.3098 0.172983 60.5069 0.119923C60.704 0.0668637 60.9097 0.0530792 61.1123 0.0793713C61.3148 0.105663 61.51 0.171508 61.6865 0.273074C61.8631 0.374641 62.0174 0.509903 62.1406 0.670994L66.5081 6.19877C66.5413 6.24109 66.5788 6.28514 66.6155 6.32401C66.0807 6.41033 65.5764 6.62825 65.149 6.95773C64.7216 7.28721 64.3849 7.71766 64.1697 8.2095C64.142 8.16181 64.1108 8.11619 64.0763 8.07303L59.7106 2.54439Z" fill="white"/>
<path d="M74.6716 16.5315C74.8001 16.6887 74.8958 16.8696 74.9529 17.0637C75.0101 17.2577 75.0276 17.4611 75.0045 17.662C74.9814 17.8628 74.9181 18.0571 74.8183 18.2335C74.7185 18.4099 74.5842 18.565 74.4232 18.6895C74.2622 18.8141 74.0777 18.9058 73.8806 18.9592C73.6834 19.0126 73.4774 19.0266 73.2747 19.0005C73.072 18.9744 72.8766 18.9087 72.6998 18.8072C72.523 18.7057 72.3684 18.5704 72.245 18.4092L67.8776 12.8815C67.8059 12.789 67.7222 12.7062 67.6287 12.6353C68.176 12.5525 68.6926 12.332 69.1289 11.995C69.5653 11.6581 69.9068 11.2159 70.1207 10.7109C70.1701 10.8146 70.231 10.9126 70.3024 11.0029L74.6716 16.5315Z" fill="white"/>
<path d="M66.7273 12.6547C66.6471 12.7206 66.5745 12.795 66.5107 12.8766L62.1433 18.4044C61.8914 18.723 61.5219 18.9297 61.116 18.979C60.7101 19.0282 60.301 18.916 59.9788 18.667C59.6565 18.418 59.4475 18.0526 59.3977 17.6512C59.3479 17.2498 59.4614 16.8453 59.7132 16.5267L64.0806 10.9989C64.1234 10.9441 64.1622 10.8864 64.1968 10.8262C64.4274 11.318 64.7811 11.7435 65.2243 12.0626C65.6676 12.3816 66.1858 12.5836 66.7299 12.6495" fill="white"/>
<path d="M67.7352 6.35254C67.7859 6.30543 67.8329 6.25462 67.8759 6.20053L72.2433 0.672752C72.3678 0.515261 72.5224 0.383553 72.6983 0.285146C72.8742 0.18674 73.0681 0.123562 73.2687 0.0992201C73.4693 0.0748783 73.6728 0.0898494 73.8676 0.143278C74.0624 0.196708 74.2446 0.287548 74.4039 0.410614C74.5631 0.53368 74.6963 0.686561 74.7959 0.860527C74.8954 1.03449 74.9593 1.22614 74.9839 1.42452C75.0085 1.62291 74.9934 1.82414 74.9393 2.01674C74.8853 2.20934 74.7934 2.38952 74.669 2.54701L70.3015 8.07479C70.2381 8.15525 70.1833 8.2421 70.1382 8.3339C69.9398 7.8297 69.6151 7.38357 69.1947 7.03733C68.7742 6.69108 68.2718 6.45605 67.7344 6.35427" fill="white"/>
<path d="M69.2236 9.53743C69.2238 9.93481 69.1048 10.3233 68.8816 10.6538C68.6585 10.9843 68.3412 11.2419 67.97 11.3941C67.5988 11.5463 67.1902 11.5862 66.796 11.5088C66.4019 11.4314 66.0398 11.2401 65.7555 10.9592C65.4713 10.6783 65.2777 10.3203 65.1993 9.93055C65.1208 9.54082 65.161 9.13683 65.3147 8.76969C65.4685 8.40254 65.7289 8.08872 66.063 7.86793C66.3972 7.64714 66.79 7.5293 67.1919 7.5293C67.7306 7.5293 68.2472 7.74084 68.6282 8.11741C69.0092 8.49399 69.2234 9.00476 69.2236 9.53743Z" fill="#FF8500"/>
<path d="M11.427 7.16211C8.03963 7.16211 5.4873 9.70661 5.4873 13.0811V13.1243C5.4873 16.4738 8.04137 18.9976 11.427 18.9976C14.8126 18.9976 17.3667 16.454 17.3667 13.0794V13.0414C17.3667 9.69193 14.8118 7.16816 11.427 7.16816V7.16211ZM16.4216 13.0596V13.1027C16.4216 15.953 14.2842 18.1045 11.4506 18.1045C8.63884 18.1045 6.43591 15.9072 6.43591 13.1027V13.0596C6.43591 10.2093 8.57245 8.05778 11.406 8.05778C14.2187 8.05778 16.4216 10.2551 16.4216 13.0596Z" fill="white"/>
<path d="M45.3906 8.44785C44.5407 7.60745 43.2986 7.18164 41.6992 7.18164C40.3602 7.18164 39.1391 7.4848 37.7397 8.16455L37.5397 8.26215L37.9048 9.07404L38.1206 8.97126C39.4186 8.3537 40.5157 8.07818 41.6774 8.07818C44.2498 8.07818 45.6081 9.34006 45.6081 11.7274V12.3207C44.3413 11.9343 43.0232 11.7372 41.6975 11.736C38.5713 11.736 36.55 13.1871 36.55 15.431V15.475C36.55 17.8796 38.8071 18.9739 40.9044 18.9739C43.234 18.9739 44.835 17.8934 45.6081 16.8267V19.0024H46.5366V11.7049C46.5366 10.3169 46.14 9.19064 45.3888 8.44785H45.3906ZM45.6081 13.2605V14.4947C45.6081 16.2178 43.8183 18.0774 40.9262 18.0774C39.3461 18.0774 37.5013 17.3908 37.5013 15.4534V15.4094C37.5013 13.3624 39.6806 12.6334 41.7202 12.6334C43.1702 12.6334 44.407 12.8329 45.6081 13.2605Z" fill="white"/>
<path d="M27.7226 8.07667C28.7533 8.06599 29.7601 8.384 30.5937 8.98358L30.6095 8.9948H32.0228L31.9171 8.8972C31.1475 8.16218 29.8766 7.18359 27.7436 7.18359C24.5213 7.18359 21.8982 9.82483 21.8982 13.0707V13.1121C21.8982 16.3606 24.5117 19.0027 27.7226 19.0027C29.3464 19.0027 30.7178 18.4343 31.9153 17.2649L32.0175 17.1647H30.6129L30.5972 17.1759C29.7759 17.7889 28.7725 18.1157 27.7436 18.1053C25.0445 18.1053 22.852 15.8596 22.852 13.0914V13.0499C22.852 10.2619 24.993 8.0784 27.7261 8.0784" fill="white"/>
</svg>
