<svg width="51" height="50" viewBox="0 0 51 50" fill="none" xmlns="http://www.w3.org/2000/svg">
<path d="M10.7017 17.9766V17.8266H10.5517H8.89062H8.74062V17.9766V18.8071V18.9571H8.89062H10.5517H10.7017V18.8071V17.9766Z" fill="#9BC156" stroke="#9BC156" stroke-width="0.3"/>
<path d="M10.7017 21.3008V21.1508H10.5517H8.89062H8.74062V21.3008V22.1313V22.2813H8.89062H10.5517H10.7017V22.1313V21.3008Z" fill="#9BC156" stroke="#9BC156" stroke-width="0.3"/>
<mask id="path-3-outside-1_503_24117" maskUnits="userSpaceOnUse" x="31.5586" y="-0.306641" width="19" height="51" fill="black">
<rect fill="white" x="31.5586" y="-0.306641" width="19" height="51"/>
<path d="M49.9873 18.2905L49.6089 16.7755C49.2941 15.5154 48.3235 14.511 47.0757 14.1542L43.3555 13.0903V11.1671L44.0604 10.8143C44.6376 10.5254 45.0412 9.99647 45.1678 9.36299L45.8367 6.01527L46.6652 2.69839C46.6924 2.58962 46.6744 2.47455 46.6155 2.37917C46.5566 2.28378 46.4617 2.21621 46.3524 2.19195L39.9254 0.762536C39.1497 0.589833 38.3252 0.744069 37.6641 1.18526C36.5676 1.91697 36.0928 3.30184 36.5095 4.55318L36.7223 5.19214L37.4084 9.31215C37.5172 9.96572 37.9357 10.5328 38.5278 10.8292L39.2028 11.167V13.0903L35.4826 14.1542C34.2348 14.511 33.2642 15.5154 32.9494 16.7755L32.571 18.2906C32.5403 18.4137 32.5674 18.5442 32.6447 18.6447L35.0502 21.7746V49.1475C35.0502 49.377 35.2361 49.5631 35.4655 49.5631H47.0928C47.3222 49.5631 47.5081 49.377 47.5081 49.1475V21.7746L49.9136 18.6447C49.9909 18.5442 50.018 18.4137 49.9873 18.2905ZM38.1248 1.87689C38.5988 1.56071 39.1894 1.45031 39.7452 1.5739L45.756 2.91077L45.116 5.47331L37.4354 4.70457L37.2974 4.29037C36.9988 3.39367 37.339 2.40119 38.1248 1.87689ZM38.2275 9.17547L37.6253 5.55903L44.9348 6.29061L44.3535 9.19992C44.2774 9.58003 44.0352 9.89743 43.6889 10.0707L41.2791 11.2767L38.8993 10.0857C38.5439 9.90789 38.2929 9.56765 38.2275 9.17547ZM41.0934 12.1131C41.1519 12.1424 41.2155 12.157 41.2791 12.157C41.3428 12.157 41.4064 12.1424 41.4649 12.1131L42.5249 11.5827V13.3159C42.2579 13.9017 41.7125 14.1138 41.2791 14.1138C40.8458 14.1138 40.3003 13.9017 40.0334 13.3159V11.5827L41.0934 12.1131ZM40.7656 23.2749L39.3401 25.2368C39.2394 25.3753 39.1591 25.5224 39.0948 25.6738L36.0914 21.766L38.4065 20.0282L40.7656 23.2749ZM44.1518 20.0282L46.4669 21.766L42.1774 27.3471C41.9402 27.6558 41.5815 27.8473 41.1932 27.8726C40.8046 27.8971 40.4244 27.7543 40.1492 27.4789C39.6758 27.0051 39.618 26.2677 40.0119 25.7256L44.1518 20.0282ZM35.8807 48.7319C35.8807 47.3568 36.9985 46.2381 38.3723 46.2381C39.7461 46.2381 40.8639 47.3568 40.8639 48.7319H35.8807ZM41.6944 48.7319C41.6944 47.3568 42.8122 46.2381 44.186 46.2381C45.5598 46.2381 46.6776 47.3568 46.6776 48.7319H41.6944ZM44.186 45.4069C43.1945 45.4069 42.3036 45.8445 41.6944 46.5362V32.5225H40.8639V46.5362C40.2547 45.8445 39.3638 45.4069 38.3723 45.4069C37.3808 45.4069 36.4899 45.8445 35.8807 46.5362V29.6132H46.6776V46.5362C46.0684 45.8445 45.1775 45.4069 44.186 45.4069ZM46.6776 28.7819H35.8807V22.8552L38.9443 26.8413C39.0109 27.2909 39.2177 27.722 39.562 28.0667C39.9726 28.4777 40.5285 28.7066 41.1055 28.7066C41.1525 28.7066 41.1998 28.7051 41.247 28.702C41.8738 28.6613 42.4528 28.3522 42.8358 27.8539L46.6776 22.8552V28.7819ZM46.9733 21.107L44.6404 19.3558L45.7677 17.8045L45.0959 17.3157L41.2791 22.5683L37.4624 17.3157L36.7906 17.8045L37.9179 19.3558L35.585 21.107L33.4254 18.2972L33.7552 16.977C33.9981 16.0043 34.7475 15.2289 35.7107 14.9534L39.4025 13.8977C39.7979 14.5515 40.4877 14.9451 41.2791 14.9451C42.0706 14.9451 42.7604 14.5515 43.1558 13.8977L46.8476 14.9534C47.8108 15.2289 48.5602 16.0043 48.8031 16.977L49.1329 18.2972L46.9733 21.107Z"/>
</mask>
<path d="M49.9873 18.2905L49.6089 16.7755C49.2941 15.5154 48.3235 14.511 47.0757 14.1542L43.3555 13.0903V11.1671L44.0604 10.8143C44.6376 10.5254 45.0412 9.99647 45.1678 9.36299L45.8367 6.01527L46.6652 2.69839C46.6924 2.58962 46.6744 2.47455 46.6155 2.37917C46.5566 2.28378 46.4617 2.21621 46.3524 2.19195L39.9254 0.762536C39.1497 0.589833 38.3252 0.744069 37.6641 1.18526C36.5676 1.91697 36.0928 3.30184 36.5095 4.55318L36.7223 5.19214L37.4084 9.31215C37.5172 9.96572 37.9357 10.5328 38.5278 10.8292L39.2028 11.167V13.0903L35.4826 14.1542C34.2348 14.511 33.2642 15.5154 32.9494 16.7755L32.571 18.2906C32.5403 18.4137 32.5674 18.5442 32.6447 18.6447L35.0502 21.7746V49.1475C35.0502 49.377 35.2361 49.5631 35.4655 49.5631H47.0928C47.3222 49.5631 47.5081 49.377 47.5081 49.1475V21.7746L49.9136 18.6447C49.9909 18.5442 50.018 18.4137 49.9873 18.2905ZM38.1248 1.87689C38.5988 1.56071 39.1894 1.45031 39.7452 1.5739L45.756 2.91077L45.116 5.47331L37.4354 4.70457L37.2974 4.29037C36.9988 3.39367 37.339 2.40119 38.1248 1.87689ZM38.2275 9.17547L37.6253 5.55903L44.9348 6.29061L44.3535 9.19992C44.2774 9.58003 44.0352 9.89743 43.6889 10.0707L41.2791 11.2767L38.8993 10.0857C38.5439 9.90789 38.2929 9.56765 38.2275 9.17547ZM41.0934 12.1131C41.1519 12.1424 41.2155 12.157 41.2791 12.157C41.3428 12.157 41.4064 12.1424 41.4649 12.1131L42.5249 11.5827V13.3159C42.2579 13.9017 41.7125 14.1138 41.2791 14.1138C40.8458 14.1138 40.3003 13.9017 40.0334 13.3159V11.5827L41.0934 12.1131ZM40.7656 23.2749L39.3401 25.2368C39.2394 25.3753 39.1591 25.5224 39.0948 25.6738L36.0914 21.766L38.4065 20.0282L40.7656 23.2749ZM44.1518 20.0282L46.4669 21.766L42.1774 27.3471C41.9402 27.6558 41.5815 27.8473 41.1932 27.8726C40.8046 27.8971 40.4244 27.7543 40.1492 27.4789C39.6758 27.0051 39.618 26.2677 40.0119 25.7256L44.1518 20.0282ZM35.8807 48.7319C35.8807 47.3568 36.9985 46.2381 38.3723 46.2381C39.7461 46.2381 40.8639 47.3568 40.8639 48.7319H35.8807ZM41.6944 48.7319C41.6944 47.3568 42.8122 46.2381 44.186 46.2381C45.5598 46.2381 46.6776 47.3568 46.6776 48.7319H41.6944ZM44.186 45.4069C43.1945 45.4069 42.3036 45.8445 41.6944 46.5362V32.5225H40.8639V46.5362C40.2547 45.8445 39.3638 45.4069 38.3723 45.4069C37.3808 45.4069 36.4899 45.8445 35.8807 46.5362V29.6132H46.6776V46.5362C46.0684 45.8445 45.1775 45.4069 44.186 45.4069ZM46.6776 28.7819H35.8807V22.8552L38.9443 26.8413C39.0109 27.2909 39.2177 27.722 39.562 28.0667C39.9726 28.4777 40.5285 28.7066 41.1055 28.7066C41.1525 28.7066 41.1998 28.7051 41.247 28.702C41.8738 28.6613 42.4528 28.3522 42.8358 27.8539L46.6776 22.8552V28.7819ZM46.9733 21.107L44.6404 19.3558L45.7677 17.8045L45.0959 17.3157L41.2791 22.5683L37.4624 17.3157L36.7906 17.8045L37.9179 19.3558L35.585 21.107L33.4254 18.2972L33.7552 16.977C33.9981 16.0043 34.7475 15.2289 35.7107 14.9534L39.4025 13.8977C39.7979 14.5515 40.4877 14.9451 41.2791 14.9451C42.0706 14.9451 42.7604 14.5515 43.1558 13.8977L46.8476 14.9534C47.8108 15.2289 48.5602 16.0043 48.8031 16.977L49.1329 18.2972L46.9733 21.107Z" fill="#9BC156"/>
<path d="M49.9873 18.2905L49.6089 16.7755C49.2941 15.5154 48.3235 14.511 47.0757 14.1542L43.3555 13.0903V11.1671L44.0604 10.8143C44.6376 10.5254 45.0412 9.99647 45.1678 9.36299L45.8367 6.01527L46.6652 2.69839C46.6924 2.58962 46.6744 2.47455 46.6155 2.37917C46.5566 2.28378 46.4617 2.21621 46.3524 2.19195L39.9254 0.762536C39.1497 0.589833 38.3252 0.744069 37.6641 1.18526C36.5676 1.91697 36.0928 3.30184 36.5095 4.55318L36.7223 5.19214L37.4084 9.31215C37.5172 9.96572 37.9357 10.5328 38.5278 10.8292L39.2028 11.167V13.0903L35.4826 14.1542C34.2348 14.511 33.2642 15.5154 32.9494 16.7755L32.571 18.2906C32.5403 18.4137 32.5674 18.5442 32.6447 18.6447L35.0502 21.7746V49.1475C35.0502 49.377 35.2361 49.5631 35.4655 49.5631H47.0928C47.3222 49.5631 47.5081 49.377 47.5081 49.1475V21.7746L49.9136 18.6447C49.9909 18.5442 50.018 18.4137 49.9873 18.2905ZM38.1248 1.87689C38.5988 1.56071 39.1894 1.45031 39.7452 1.5739L45.756 2.91077L45.116 5.47331L37.4354 4.70457L37.2974 4.29037C36.9988 3.39367 37.339 2.40119 38.1248 1.87689ZM38.2275 9.17547L37.6253 5.55903L44.9348 6.29061L44.3535 9.19992C44.2774 9.58003 44.0352 9.89743 43.6889 10.0707L41.2791 11.2767L38.8993 10.0857C38.5439 9.90789 38.2929 9.56765 38.2275 9.17547ZM41.0934 12.1131C41.1519 12.1424 41.2155 12.157 41.2791 12.157C41.3428 12.157 41.4064 12.1424 41.4649 12.1131L42.5249 11.5827V13.3159C42.2579 13.9017 41.7125 14.1138 41.2791 14.1138C40.8458 14.1138 40.3003 13.9017 40.0334 13.3159V11.5827L41.0934 12.1131ZM40.7656 23.2749L39.3401 25.2368C39.2394 25.3753 39.1591 25.5224 39.0948 25.6738L36.0914 21.766L38.4065 20.0282L40.7656 23.2749ZM44.1518 20.0282L46.4669 21.766L42.1774 27.3471C41.9402 27.6558 41.5815 27.8473 41.1932 27.8726C40.8046 27.8971 40.4244 27.7543 40.1492 27.4789C39.6758 27.0051 39.618 26.2677 40.0119 25.7256L44.1518 20.0282ZM35.8807 48.7319C35.8807 47.3568 36.9985 46.2381 38.3723 46.2381C39.7461 46.2381 40.8639 47.3568 40.8639 48.7319H35.8807ZM41.6944 48.7319C41.6944 47.3568 42.8122 46.2381 44.186 46.2381C45.5598 46.2381 46.6776 47.3568 46.6776 48.7319H41.6944ZM44.186 45.4069C43.1945 45.4069 42.3036 45.8445 41.6944 46.5362V32.5225H40.8639V46.5362C40.2547 45.8445 39.3638 45.4069 38.3723 45.4069C37.3808 45.4069 36.4899 45.8445 35.8807 46.5362V29.6132H46.6776V46.5362C46.0684 45.8445 45.1775 45.4069 44.186 45.4069ZM46.6776 28.7819H35.8807V22.8552L38.9443 26.8413C39.0109 27.2909 39.2177 27.722 39.562 28.0667C39.9726 28.4777 40.5285 28.7066 41.1055 28.7066C41.1525 28.7066 41.1998 28.7051 41.247 28.702C41.8738 28.6613 42.4528 28.3522 42.8358 27.8539L46.6776 22.8552V28.7819ZM46.9733 21.107L44.6404 19.3558L45.7677 17.8045L45.0959 17.3157L41.2791 22.5683L37.4624 17.3157L36.7906 17.8045L37.9179 19.3558L35.585 21.107L33.4254 18.2972L33.7552 16.977C33.9981 16.0043 34.7475 15.2289 35.7107 14.9534L39.4025 13.8977C39.7979 14.5515 40.4877 14.9451 41.2791 14.9451C42.0706 14.9451 42.7604 14.5515 43.1558 13.8977L46.8476 14.9534C47.8108 15.2289 48.5602 16.0043 48.8031 16.977L49.1329 18.2972L46.9733 21.107Z" stroke="#9BC156" stroke-width="0.6" mask="url(#path-3-outside-1_503_24117)"/>
<mask id="path-4-outside-2_503_24117" maskUnits="userSpaceOnUse" x="17.4414" y="-0.480469" width="16" height="51" fill="black">
<rect fill="white" x="17.4414" y="-0.480469" width="16" height="51"/>
<path d="M32.1629 17.1926C31.9672 16.2131 31.4648 15.3465 30.7483 14.699L30.902 14.3086C31.9863 11.5955 32.1417 8.55387 31.3395 5.74425L30.8988 4.20028C30.8668 2.16518 29.2028 0.519531 27.162 0.519531H24.3694C22.8723 0.519531 21.5239 1.40943 20.9342 2.78659C19.8342 5.35532 19.5729 8.1552 20.1788 10.8836L20.9158 14.2016C19.8472 14.861 19.0903 15.934 18.8389 17.1926L18.4495 19.1411C18.4284 19.2461 18.4488 19.3553 18.5063 19.4457L20.1025 21.9562V26.6263C19.0236 29.3777 18.9427 32.4324 19.877 35.2381L20.1238 35.9789C20.1803 36.1487 20.339 36.2632 20.5177 36.2632H21.7967L22.593 45.8272C22.0904 46.2068 21.7635 46.8076 21.7635 47.485V49.1475C21.7635 49.377 21.9495 49.5631 22.1788 49.5631H28.823C29.0523 49.5631 29.2383 49.377 29.2383 49.1475V47.485C29.2383 46.8076 28.9114 46.2068 28.4088 45.8272L29.2051 36.2632H30.4841C30.6628 36.2632 30.8215 36.1487 30.878 35.9789L31.1248 35.2381C32.0591 32.4324 31.9782 29.3777 30.8993 26.6263V21.9562L32.4955 19.4457C32.553 19.3553 32.5734 19.2461 32.5523 19.1411L32.1629 17.1926ZM21.6976 3.11403C22.1563 2.04291 23.205 1.35078 24.3694 1.35078H27.162C28.7648 1.35078 30.0688 2.65589 30.0688 4.26014C30.0688 4.29881 30.0742 4.33716 30.0848 4.3743L30.5411 5.97256C31.2928 8.60603 31.1471 11.4568 30.13 14.0019L30.058 14.185C29.8435 14.0547 29.618 13.9395 29.3802 13.8444L27.5772 13.1225V10.7847C28.7569 9.65397 29.5639 8.15783 29.8379 6.51269L30.0631 5.15968C30.0931 4.97977 30.0023 4.80129 29.8393 4.7196L26.5172 3.05711C26.39 2.99349 26.2394 2.99937 26.1178 3.07253L21.9652 5.56628C21.8146 5.65658 21.7372 5.83193 21.7716 6.00412L22.0149 7.22146C22.246 8.37853 22.7305 9.44256 23.4246 10.3543V13.1225L21.6819 13.8202L20.9895 10.7032C20.4217 8.14596 20.6666 5.52173 21.6976 3.11403ZM26.7467 13.3458L25.5009 17.7097L24.2551 13.3458V11.2765C24.5677 11.5715 24.9058 11.8438 25.2706 12.0872C25.34 12.1336 25.4203 12.157 25.5009 12.157C25.5644 12.157 25.6279 12.1425 25.6866 12.1132L25.716 12.0984C26.0781 11.9172 26.4222 11.7079 26.7467 11.4748V13.3458ZM25.5319 11.2575C24.1264 10.2474 23.1703 8.76524 22.8292 7.0585L22.6433 6.12832L26.3496 3.90267L29.1935 5.32589L29.0187 6.37611C28.673 8.45159 27.3761 10.2613 25.5319 11.2575ZM25.9947 25.7008C26.3208 26.1903 26.1882 26.8541 25.6991 27.1804C25.4586 27.341 25.1707 27.3966 24.8875 27.3366C24.6048 27.2769 24.3635 27.1096 24.2084 26.8655L21.5683 22.7131L23.6567 22.1906L25.9947 25.7008ZM27.3451 22.1906L29.4336 22.7131L26.9819 26.5692C27.0509 26.1032 26.9488 25.6345 26.6858 25.2397L25.9999 24.2101L27.3451 22.1906ZM22.8568 26.2882H20.933V23.2624L22.8568 26.2882ZM22.6301 36.2632H25.0856V45.8264C24.7382 45.5643 24.3076 45.4069 23.8398 45.4069C23.6872 45.4069 23.5389 45.4246 23.3956 45.456L22.6301 36.2632ZM22.5941 47.485C22.5941 46.7974 23.1529 46.2381 23.8398 46.2381C24.5268 46.2381 25.0856 46.7974 25.0856 47.485V48.7319H22.5941V47.485ZM28.4078 48.7319H25.9162V47.485C25.9162 46.7974 26.475 46.2381 27.162 46.2381C27.8489 46.2381 28.4078 46.7974 28.4078 47.485V48.7319ZM27.6062 45.456C27.4629 45.4246 27.3145 45.4069 27.162 45.4069C26.6943 45.4069 26.2637 45.5643 25.9162 45.8264V36.2632H28.3717L27.6062 45.456ZM30.3369 34.9753L30.1848 35.4319H20.817L20.6649 34.9753C19.8134 32.4182 19.8668 29.6403 20.8055 27.1194H23.3853L23.5076 27.3117C23.7838 27.746 24.2129 28.0436 24.7161 28.15C24.848 28.1779 24.9807 28.1916 25.1123 28.1916C25.2439 28.1916 25.3743 28.1772 25.502 28.15C25.6347 28.1782 25.7678 28.1925 25.8995 28.1925C26.5355 28.1925 27.1383 27.8714 27.4942 27.3117L27.6165 27.1194H30.1963C31.1351 29.6403 31.1884 32.4182 30.3369 34.9753ZM30.0688 26.2882H28.145L30.0688 23.2624V26.2882ZM29.9036 21.9739L27.8343 21.4561L29.1685 19.4531L28.4775 18.9921L25.5009 23.4608L22.5243 18.9921L21.8333 19.4531L23.1675 21.4561L21.0982 21.9739L19.2966 19.1403L19.6532 17.3555C19.9018 16.1114 20.7529 15.0873 21.93 14.6161L23.567 13.9607L25.1017 19.3368C25.1526 19.5152 25.3155 19.6382 25.5009 19.6382C25.6863 19.6382 25.8493 19.5152 25.9002 19.3368L27.4348 13.9607L29.0718 14.6161C30.2489 15.0873 31.1 16.1114 31.3486 17.3555L31.7052 19.1404L29.9036 21.9739Z"/>
</mask>
<path d="M32.1629 17.1926C31.9672 16.2131 31.4648 15.3465 30.7483 14.699L30.902 14.3086C31.9863 11.5955 32.1417 8.55387 31.3395 5.74425L30.8988 4.20028C30.8668 2.16518 29.2028 0.519531 27.162 0.519531H24.3694C22.8723 0.519531 21.5239 1.40943 20.9342 2.78659C19.8342 5.35532 19.5729 8.1552 20.1788 10.8836L20.9158 14.2016C19.8472 14.861 19.0903 15.934 18.8389 17.1926L18.4495 19.1411C18.4284 19.2461 18.4488 19.3553 18.5063 19.4457L20.1025 21.9562V26.6263C19.0236 29.3777 18.9427 32.4324 19.877 35.2381L20.1238 35.9789C20.1803 36.1487 20.339 36.2632 20.5177 36.2632H21.7967L22.593 45.8272C22.0904 46.2068 21.7635 46.8076 21.7635 47.485V49.1475C21.7635 49.377 21.9495 49.5631 22.1788 49.5631H28.823C29.0523 49.5631 29.2383 49.377 29.2383 49.1475V47.485C29.2383 46.8076 28.9114 46.2068 28.4088 45.8272L29.2051 36.2632H30.4841C30.6628 36.2632 30.8215 36.1487 30.878 35.9789L31.1248 35.2381C32.0591 32.4324 31.9782 29.3777 30.8993 26.6263V21.9562L32.4955 19.4457C32.553 19.3553 32.5734 19.2461 32.5523 19.1411L32.1629 17.1926ZM21.6976 3.11403C22.1563 2.04291 23.205 1.35078 24.3694 1.35078H27.162C28.7648 1.35078 30.0688 2.65589 30.0688 4.26014C30.0688 4.29881 30.0742 4.33716 30.0848 4.3743L30.5411 5.97256C31.2928 8.60603 31.1471 11.4568 30.13 14.0019L30.058 14.185C29.8435 14.0547 29.618 13.9395 29.3802 13.8444L27.5772 13.1225V10.7847C28.7569 9.65397 29.5639 8.15783 29.8379 6.51269L30.0631 5.15968C30.0931 4.97977 30.0023 4.80129 29.8393 4.7196L26.5172 3.05711C26.39 2.99349 26.2394 2.99937 26.1178 3.07253L21.9652 5.56628C21.8146 5.65658 21.7372 5.83193 21.7716 6.00412L22.0149 7.22146C22.246 8.37853 22.7305 9.44256 23.4246 10.3543V13.1225L21.6819 13.8202L20.9895 10.7032C20.4217 8.14596 20.6666 5.52173 21.6976 3.11403ZM26.7467 13.3458L25.5009 17.7097L24.2551 13.3458V11.2765C24.5677 11.5715 24.9058 11.8438 25.2706 12.0872C25.34 12.1336 25.4203 12.157 25.5009 12.157C25.5644 12.157 25.6279 12.1425 25.6866 12.1132L25.716 12.0984C26.0781 11.9172 26.4222 11.7079 26.7467 11.4748V13.3458ZM25.5319 11.2575C24.1264 10.2474 23.1703 8.76524 22.8292 7.0585L22.6433 6.12832L26.3496 3.90267L29.1935 5.32589L29.0187 6.37611C28.673 8.45159 27.3761 10.2613 25.5319 11.2575ZM25.9947 25.7008C26.3208 26.1903 26.1882 26.8541 25.6991 27.1804C25.4586 27.341 25.1707 27.3966 24.8875 27.3366C24.6048 27.2769 24.3635 27.1096 24.2084 26.8655L21.5683 22.7131L23.6567 22.1906L25.9947 25.7008ZM27.3451 22.1906L29.4336 22.7131L26.9819 26.5692C27.0509 26.1032 26.9488 25.6345 26.6858 25.2397L25.9999 24.2101L27.3451 22.1906ZM22.8568 26.2882H20.933V23.2624L22.8568 26.2882ZM22.6301 36.2632H25.0856V45.8264C24.7382 45.5643 24.3076 45.4069 23.8398 45.4069C23.6872 45.4069 23.5389 45.4246 23.3956 45.456L22.6301 36.2632ZM22.5941 47.485C22.5941 46.7974 23.1529 46.2381 23.8398 46.2381C24.5268 46.2381 25.0856 46.7974 25.0856 47.485V48.7319H22.5941V47.485ZM28.4078 48.7319H25.9162V47.485C25.9162 46.7974 26.475 46.2381 27.162 46.2381C27.8489 46.2381 28.4078 46.7974 28.4078 47.485V48.7319ZM27.6062 45.456C27.4629 45.4246 27.3145 45.4069 27.162 45.4069C26.6943 45.4069 26.2637 45.5643 25.9162 45.8264V36.2632H28.3717L27.6062 45.456ZM30.3369 34.9753L30.1848 35.4319H20.817L20.6649 34.9753C19.8134 32.4182 19.8668 29.6403 20.8055 27.1194H23.3853L23.5076 27.3117C23.7838 27.746 24.2129 28.0436 24.7161 28.15C24.848 28.1779 24.9807 28.1916 25.1123 28.1916C25.2439 28.1916 25.3743 28.1772 25.502 28.15C25.6347 28.1782 25.7678 28.1925 25.8995 28.1925C26.5355 28.1925 27.1383 27.8714 27.4942 27.3117L27.6165 27.1194H30.1963C31.1351 29.6403 31.1884 32.4182 30.3369 34.9753ZM30.0688 26.2882H28.145L30.0688 23.2624V26.2882ZM29.9036 21.9739L27.8343 21.4561L29.1685 19.4531L28.4775 18.9921L25.5009 23.4608L22.5243 18.9921L21.8333 19.4531L23.1675 21.4561L21.0982 21.9739L19.2966 19.1403L19.6532 17.3555C19.9018 16.1114 20.7529 15.0873 21.93 14.6161L23.567 13.9607L25.1017 19.3368C25.1526 19.5152 25.3155 19.6382 25.5009 19.6382C25.6863 19.6382 25.8493 19.5152 25.9002 19.3368L27.4348 13.9607L29.0718 14.6161C30.2489 15.0873 31.1 16.1114 31.3486 17.3555L31.7052 19.1404L29.9036 21.9739Z" fill="#9BC156"/>
<path d="M32.1629 17.1926C31.9672 16.2131 31.4648 15.3465 30.7483 14.699L30.902 14.3086C31.9863 11.5955 32.1417 8.55387 31.3395 5.74425L30.8988 4.20028C30.8668 2.16518 29.2028 0.519531 27.162 0.519531H24.3694C22.8723 0.519531 21.5239 1.40943 20.9342 2.78659C19.8342 5.35532 19.5729 8.1552 20.1788 10.8836L20.9158 14.2016C19.8472 14.861 19.0903 15.934 18.8389 17.1926L18.4495 19.1411C18.4284 19.2461 18.4488 19.3553 18.5063 19.4457L20.1025 21.9562V26.6263C19.0236 29.3777 18.9427 32.4324 19.877 35.2381L20.1238 35.9789C20.1803 36.1487 20.339 36.2632 20.5177 36.2632H21.7967L22.593 45.8272C22.0904 46.2068 21.7635 46.8076 21.7635 47.485V49.1475C21.7635 49.377 21.9495 49.5631 22.1788 49.5631H28.823C29.0523 49.5631 29.2383 49.377 29.2383 49.1475V47.485C29.2383 46.8076 28.9114 46.2068 28.4088 45.8272L29.2051 36.2632H30.4841C30.6628 36.2632 30.8215 36.1487 30.878 35.9789L31.1248 35.2381C32.0591 32.4324 31.9782 29.3777 30.8993 26.6263V21.9562L32.4955 19.4457C32.553 19.3553 32.5734 19.2461 32.5523 19.1411L32.1629 17.1926ZM21.6976 3.11403C22.1563 2.04291 23.205 1.35078 24.3694 1.35078H27.162C28.7648 1.35078 30.0688 2.65589 30.0688 4.26014C30.0688 4.29881 30.0742 4.33716 30.0848 4.3743L30.5411 5.97256C31.2928 8.60603 31.1471 11.4568 30.13 14.0019L30.058 14.185C29.8435 14.0547 29.618 13.9395 29.3802 13.8444L27.5772 13.1225V10.7847C28.7569 9.65397 29.5639 8.15783 29.8379 6.51269L30.0631 5.15968C30.0931 4.97977 30.0023 4.80129 29.8393 4.7196L26.5172 3.05711C26.39 2.99349 26.2394 2.99937 26.1178 3.07253L21.9652 5.56628C21.8146 5.65658 21.7372 5.83193 21.7716 6.00412L22.0149 7.22146C22.246 8.37853 22.7305 9.44256 23.4246 10.3543V13.1225L21.6819 13.8202L20.9895 10.7032C20.4217 8.14596 20.6666 5.52173 21.6976 3.11403ZM26.7467 13.3458L25.5009 17.7097L24.2551 13.3458V11.2765C24.5677 11.5715 24.9058 11.8438 25.2706 12.0872C25.34 12.1336 25.4203 12.157 25.5009 12.157C25.5644 12.157 25.6279 12.1425 25.6866 12.1132L25.716 12.0984C26.0781 11.9172 26.4222 11.7079 26.7467 11.4748V13.3458ZM25.5319 11.2575C24.1264 10.2474 23.1703 8.76524 22.8292 7.0585L22.6433 6.12832L26.3496 3.90267L29.1935 5.32589L29.0187 6.37611C28.673 8.45159 27.3761 10.2613 25.5319 11.2575ZM25.9947 25.7008C26.3208 26.1903 26.1882 26.8541 25.6991 27.1804C25.4586 27.341 25.1707 27.3966 24.8875 27.3366C24.6048 27.2769 24.3635 27.1096 24.2084 26.8655L21.5683 22.7131L23.6567 22.1906L25.9947 25.7008ZM27.3451 22.1906L29.4336 22.7131L26.9819 26.5692C27.0509 26.1032 26.9488 25.6345 26.6858 25.2397L25.9999 24.2101L27.3451 22.1906ZM22.8568 26.2882H20.933V23.2624L22.8568 26.2882ZM22.6301 36.2632H25.0856V45.8264C24.7382 45.5643 24.3076 45.4069 23.8398 45.4069C23.6872 45.4069 23.5389 45.4246 23.3956 45.456L22.6301 36.2632ZM22.5941 47.485C22.5941 46.7974 23.1529 46.2381 23.8398 46.2381C24.5268 46.2381 25.0856 46.7974 25.0856 47.485V48.7319H22.5941V47.485ZM28.4078 48.7319H25.9162V47.485C25.9162 46.7974 26.475 46.2381 27.162 46.2381C27.8489 46.2381 28.4078 46.7974 28.4078 47.485V48.7319ZM27.6062 45.456C27.4629 45.4246 27.3145 45.4069 27.162 45.4069C26.6943 45.4069 26.2637 45.5643 25.9162 45.8264V36.2632H28.3717L27.6062 45.456ZM30.3369 34.9753L30.1848 35.4319H20.817L20.6649 34.9753C19.8134 32.4182 19.8668 29.6403 20.8055 27.1194H23.3853L23.5076 27.3117C23.7838 27.746 24.2129 28.0436 24.7161 28.15C24.848 28.1779 24.9807 28.1916 25.1123 28.1916C25.2439 28.1916 25.3743 28.1772 25.502 28.15C25.6347 28.1782 25.7678 28.1925 25.8995 28.1925C26.5355 28.1925 27.1383 27.8714 27.4942 27.3117L27.6165 27.1194H30.1963C31.1351 29.6403 31.1884 32.4182 30.3369 34.9753ZM30.0688 26.2882H28.145L30.0688 23.2624V26.2882ZM29.9036 21.9739L27.8343 21.4561L29.1685 19.4531L28.4775 18.9921L25.5009 23.4608L22.5243 18.9921L21.8333 19.4531L23.1675 21.4561L21.0982 21.9739L19.2966 19.1403L19.6532 17.3555C19.9018 16.1114 20.7529 15.0873 21.93 14.6161L23.567 13.9607L25.1017 19.3368C25.1526 19.5152 25.3155 19.6382 25.5009 19.6382C25.6863 19.6382 25.8493 19.5152 25.9002 19.3368L27.4348 13.9607L29.0718 14.6161C30.2489 15.0873 31.1 16.1114 31.3486 17.3555L31.7052 19.1404L29.9036 21.9739Z" stroke="#9BC156" stroke-width="0.6" mask="url(#path-4-outside-2_503_24117)"/>
<mask id="path-5-outside-3_503_24117" maskUnits="userSpaceOnUse" x="0" y="-0.480469" width="19" height="51" fill="black">
<rect fill="white" y="-0.480469" width="19" height="51"/>
<path d="M17.898 16.9967C17.6789 16.12 17.0528 15.3842 16.223 15.0283L11.7969 13.1298V11.3288C13.2784 10.5314 14.1235 8.89329 13.8808 7.19285L13.4809 4.39097C14.4881 3.5619 15.119 2.30729 15.119 0.935155C15.119 0.705629 14.9331 0.519531 14.7037 0.519531H9.72058C7.65977 0.519531 5.9832 2.19755 5.9832 4.26014V5.88175L5.75306 7.03334C5.41315 8.73452 6.19496 10.436 7.64426 11.3024V13.1298L3.21829 15.0283C2.38837 15.3842 1.76223 16.12 1.54314 16.9968L1.0124 19.1218C0.983405 19.2378 1.00581 19.3608 1.07384 19.4591L2.66307 21.7567L3.49347 29.2373L5.15409 49.182L5.15612 49.1818C5.17386 49.395 5.35037 49.5631 5.56794 49.5631H13.8732C14.0908 49.5631 14.2673 49.395 14.285 49.1818L14.2871 49.182L15.9477 29.2373L16.7781 21.7566L18.3673 19.4591C18.4354 19.3608 18.4578 19.2378 18.4288 19.1218L17.898 16.9967ZM13.5611 14.791L12.1592 16.194L10.3723 15.0017L11.4764 13.8967L13.5611 14.791ZM8.47479 11.6793C8.88093 11.8113 9.3006 11.8784 9.72058 11.8784C10.1404 11.8784 10.5602 11.8113 10.9664 11.6793V13.2318L9.72058 14.4785L8.47479 13.2318V11.6793ZM6.81373 4.26014C6.81373 2.65589 8.11772 1.35078 9.72058 1.35078H14.2647C14.0861 2.90024 12.9215 4.19307 11.3647 4.50469L6.81373 5.41569L6.81373 4.26014ZM6.56737 7.1963L6.75133 6.27581L11.5275 5.3197C11.9494 5.23528 12.3473 5.09132 12.7144 4.89913L13.0586 7.31035C13.2691 8.78462 12.4511 10.2005 11.0694 10.7537L10.9149 10.8157C10.1447 11.1239 9.2965 11.1239 8.52629 10.8157C7.08736 10.2395 6.26352 8.71734 6.56737 7.1963ZM7.96476 13.8967L9.06881 15.0018L7.28192 16.194L5.88002 14.791L7.96476 13.8967ZM9.20713 25.2492L8.58651 26.1033C8.05907 26.829 8.04725 27.776 8.5125 28.5028C8.3362 28.4077 8.17999 28.2721 8.06074 28.0998L6.4559 25.7796L8.56836 24.3701L9.20713 25.2492ZM10.8728 24.3702L12.9852 25.7796L11.3804 28.0997C11.1602 28.4182 10.8128 28.6207 10.4274 28.6555C10.042 28.6899 9.66401 28.5531 9.39028 28.2793C8.93466 27.8232 8.8791 27.1138 9.25817 26.5922L10.8728 24.3702ZM11.7969 45.4069C11.1593 45.4069 10.577 45.6482 10.1358 46.0439V31.6913H9.30532V46.0439C8.86415 45.6482 8.28191 45.4069 7.64426 45.4069C6.8847 45.4069 6.20391 45.7492 5.74652 46.2874L4.35821 29.6132H15.0829L13.6946 46.2874C13.2372 45.7492 12.5565 45.4069 11.7969 45.4069ZM7.37782 28.5729C7.42887 28.6467 7.484 28.7164 7.54275 28.7819H4.27855L3.65844 23.1957L7.37782 28.5729ZM5.9832 47.9006C5.9832 46.9839 6.72836 46.2381 7.64426 46.2381C8.56015 46.2381 9.30532 46.9839 9.30532 47.9006V48.7319H5.9832V47.9006ZM13.458 48.7319H10.1358V47.9006C10.1358 46.9839 10.881 46.2381 11.7969 46.2381C12.7128 46.2381 13.458 46.9839 13.458 47.9006V48.7319ZM15.1626 28.7819H11.8978C11.9567 28.716 12.0123 28.6466 12.0633 28.5728L15.7827 23.1957L15.1626 28.7819ZM13.458 25.096L11.3617 23.6974L15.0396 18.6358L14.3679 18.1469L9.72063 24.5425L5.07329 18.1469L4.40153 18.6358L8.07947 23.6973L5.9831 25.0961L1.86381 19.1408L2.34893 17.1985C2.50536 16.5722 2.95266 16.0466 3.54545 15.7924L5.05793 15.1436L6.93539 17.0227C7.01558 17.1031 7.12193 17.1445 7.22909 17.1445C7.30888 17.1445 7.38908 17.1215 7.45933 17.0747L9.72058 15.5659L11.9818 17.0747C12.0521 17.1215 12.1323 17.1445 12.2121 17.1445C12.3192 17.1445 12.4256 17.1031 12.5058 17.0227L14.3833 15.1436L15.8958 15.7924C16.4885 16.0466 16.9358 16.5722 17.0922 17.1984L17.5773 19.1408L13.458 25.096Z"/>
</mask>
<path d="M17.898 16.9967C17.6789 16.12 17.0528 15.3842 16.223 15.0283L11.7969 13.1298V11.3288C13.2784 10.5314 14.1235 8.89329 13.8808 7.19285L13.4809 4.39097C14.4881 3.5619 15.119 2.30729 15.119 0.935155C15.119 0.705629 14.9331 0.519531 14.7037 0.519531H9.72058C7.65977 0.519531 5.9832 2.19755 5.9832 4.26014V5.88175L5.75306 7.03334C5.41315 8.73452 6.19496 10.436 7.64426 11.3024V13.1298L3.21829 15.0283C2.38837 15.3842 1.76223 16.12 1.54314 16.9968L1.0124 19.1218C0.983405 19.2378 1.00581 19.3608 1.07384 19.4591L2.66307 21.7567L3.49347 29.2373L5.15409 49.182L5.15612 49.1818C5.17386 49.395 5.35037 49.5631 5.56794 49.5631H13.8732C14.0908 49.5631 14.2673 49.395 14.285 49.1818L14.2871 49.182L15.9477 29.2373L16.7781 21.7566L18.3673 19.4591C18.4354 19.3608 18.4578 19.2378 18.4288 19.1218L17.898 16.9967ZM13.5611 14.791L12.1592 16.194L10.3723 15.0017L11.4764 13.8967L13.5611 14.791ZM8.47479 11.6793C8.88093 11.8113 9.3006 11.8784 9.72058 11.8784C10.1404 11.8784 10.5602 11.8113 10.9664 11.6793V13.2318L9.72058 14.4785L8.47479 13.2318V11.6793ZM6.81373 4.26014C6.81373 2.65589 8.11772 1.35078 9.72058 1.35078H14.2647C14.0861 2.90024 12.9215 4.19307 11.3647 4.50469L6.81373 5.41569L6.81373 4.26014ZM6.56737 7.1963L6.75133 6.27581L11.5275 5.3197C11.9494 5.23528 12.3473 5.09132 12.7144 4.89913L13.0586 7.31035C13.2691 8.78462 12.4511 10.2005 11.0694 10.7537L10.9149 10.8157C10.1447 11.1239 9.2965 11.1239 8.52629 10.8157C7.08736 10.2395 6.26352 8.71734 6.56737 7.1963ZM7.96476 13.8967L9.06881 15.0018L7.28192 16.194L5.88002 14.791L7.96476 13.8967ZM9.20713 25.2492L8.58651 26.1033C8.05907 26.829 8.04725 27.776 8.5125 28.5028C8.3362 28.4077 8.17999 28.2721 8.06074 28.0998L6.4559 25.7796L8.56836 24.3701L9.20713 25.2492ZM10.8728 24.3702L12.9852 25.7796L11.3804 28.0997C11.1602 28.4182 10.8128 28.6207 10.4274 28.6555C10.042 28.6899 9.66401 28.5531 9.39028 28.2793C8.93466 27.8232 8.8791 27.1138 9.25817 26.5922L10.8728 24.3702ZM11.7969 45.4069C11.1593 45.4069 10.577 45.6482 10.1358 46.0439V31.6913H9.30532V46.0439C8.86415 45.6482 8.28191 45.4069 7.64426 45.4069C6.8847 45.4069 6.20391 45.7492 5.74652 46.2874L4.35821 29.6132H15.0829L13.6946 46.2874C13.2372 45.7492 12.5565 45.4069 11.7969 45.4069ZM7.37782 28.5729C7.42887 28.6467 7.484 28.7164 7.54275 28.7819H4.27855L3.65844 23.1957L7.37782 28.5729ZM5.9832 47.9006C5.9832 46.9839 6.72836 46.2381 7.64426 46.2381C8.56015 46.2381 9.30532 46.9839 9.30532 47.9006V48.7319H5.9832V47.9006ZM13.458 48.7319H10.1358V47.9006C10.1358 46.9839 10.881 46.2381 11.7969 46.2381C12.7128 46.2381 13.458 46.9839 13.458 47.9006V48.7319ZM15.1626 28.7819H11.8978C11.9567 28.716 12.0123 28.6466 12.0633 28.5728L15.7827 23.1957L15.1626 28.7819ZM13.458 25.096L11.3617 23.6974L15.0396 18.6358L14.3679 18.1469L9.72063 24.5425L5.07329 18.1469L4.40153 18.6358L8.07947 23.6973L5.9831 25.0961L1.86381 19.1408L2.34893 17.1985C2.50536 16.5722 2.95266 16.0466 3.54545 15.7924L5.05793 15.1436L6.93539 17.0227C7.01558 17.1031 7.12193 17.1445 7.22909 17.1445C7.30888 17.1445 7.38908 17.1215 7.45933 17.0747L9.72058 15.5659L11.9818 17.0747C12.0521 17.1215 12.1323 17.1445 12.2121 17.1445C12.3192 17.1445 12.4256 17.1031 12.5058 17.0227L14.3833 15.1436L15.8958 15.7924C16.4885 16.0466 16.9358 16.5722 17.0922 17.1984L17.5773 19.1408L13.458 25.096Z" fill="#9BC156"/>
<path d="M17.898 16.9967C17.6789 16.12 17.0528 15.3842 16.223 15.0283L11.7969 13.1298V11.3288C13.2784 10.5314 14.1235 8.89329 13.8808 7.19285L13.4809 4.39097C14.4881 3.5619 15.119 2.30729 15.119 0.935155C15.119 0.705629 14.9331 0.519531 14.7037 0.519531H9.72058C7.65977 0.519531 5.9832 2.19755 5.9832 4.26014V5.88175L5.75306 7.03334C5.41315 8.73452 6.19496 10.436 7.64426 11.3024V13.1298L3.21829 15.0283C2.38837 15.3842 1.76223 16.12 1.54314 16.9968L1.0124 19.1218C0.983405 19.2378 1.00581 19.3608 1.07384 19.4591L2.66307 21.7567L3.49347 29.2373L5.15409 49.182L5.15612 49.1818C5.17386 49.395 5.35037 49.5631 5.56794 49.5631H13.8732C14.0908 49.5631 14.2673 49.395 14.285 49.1818L14.2871 49.182L15.9477 29.2373L16.7781 21.7566L18.3673 19.4591C18.4354 19.3608 18.4578 19.2378 18.4288 19.1218L17.898 16.9967ZM13.5611 14.791L12.1592 16.194L10.3723 15.0017L11.4764 13.8967L13.5611 14.791ZM8.47479 11.6793C8.88093 11.8113 9.3006 11.8784 9.72058 11.8784C10.1404 11.8784 10.5602 11.8113 10.9664 11.6793V13.2318L9.72058 14.4785L8.47479 13.2318V11.6793ZM6.81373 4.26014C6.81373 2.65589 8.11772 1.35078 9.72058 1.35078H14.2647C14.0861 2.90024 12.9215 4.19307 11.3647 4.50469L6.81373 5.41569L6.81373 4.26014ZM6.56737 7.1963L6.75133 6.27581L11.5275 5.3197C11.9494 5.23528 12.3473 5.09132 12.7144 4.89913L13.0586 7.31035C13.2691 8.78462 12.4511 10.2005 11.0694 10.7537L10.9149 10.8157C10.1447 11.1239 9.2965 11.1239 8.52629 10.8157C7.08736 10.2395 6.26352 8.71734 6.56737 7.1963ZM7.96476 13.8967L9.06881 15.0018L7.28192 16.194L5.88002 14.791L7.96476 13.8967ZM9.20713 25.2492L8.58651 26.1033C8.05907 26.829 8.04725 27.776 8.5125 28.5028C8.3362 28.4077 8.17999 28.2721 8.06074 28.0998L6.4559 25.7796L8.56836 24.3701L9.20713 25.2492ZM10.8728 24.3702L12.9852 25.7796L11.3804 28.0997C11.1602 28.4182 10.8128 28.6207 10.4274 28.6555C10.042 28.6899 9.66401 28.5531 9.39028 28.2793C8.93466 27.8232 8.8791 27.1138 9.25817 26.5922L10.8728 24.3702ZM11.7969 45.4069C11.1593 45.4069 10.577 45.6482 10.1358 46.0439V31.6913H9.30532V46.0439C8.86415 45.6482 8.28191 45.4069 7.64426 45.4069C6.8847 45.4069 6.20391 45.7492 5.74652 46.2874L4.35821 29.6132H15.0829L13.6946 46.2874C13.2372 45.7492 12.5565 45.4069 11.7969 45.4069ZM7.37782 28.5729C7.42887 28.6467 7.484 28.7164 7.54275 28.7819H4.27855L3.65844 23.1957L7.37782 28.5729ZM5.9832 47.9006C5.9832 46.9839 6.72836 46.2381 7.64426 46.2381C8.56015 46.2381 9.30532 46.9839 9.30532 47.9006V48.7319H5.9832V47.9006ZM13.458 48.7319H10.1358V47.9006C10.1358 46.9839 10.881 46.2381 11.7969 46.2381C12.7128 46.2381 13.458 46.9839 13.458 47.9006V48.7319ZM15.1626 28.7819H11.8978C11.9567 28.716 12.0123 28.6466 12.0633 28.5728L15.7827 23.1957L15.1626 28.7819ZM13.458 25.096L11.3617 23.6974L15.0396 18.6358L14.3679 18.1469L9.72063 24.5425L5.07329 18.1469L4.40153 18.6358L8.07947 23.6973L5.9831 25.0961L1.86381 19.1408L2.34893 17.1985C2.50536 16.5722 2.95266 16.0466 3.54545 15.7924L5.05793 15.1436L6.93539 17.0227C7.01558 17.1031 7.12193 17.1445 7.22909 17.1445C7.30888 17.1445 7.38908 17.1215 7.45933 17.0747L9.72058 15.5659L11.9818 17.0747C12.0521 17.1215 12.1323 17.1445 12.2121 17.1445C12.3192 17.1445 12.4256 17.1031 12.5058 17.0227L14.3833 15.1436L15.8958 15.7924C16.4885 16.0466 16.9358 16.5722 17.0922 17.1984L17.5773 19.1408L13.458 25.096Z" stroke="#9BC156" stroke-width="0.6" mask="url(#path-5-outside-3_503_24117)"/>
</svg>
