<svg width="47" height="41" viewBox="0 0 47 41" fill="none" xmlns="http://www.w3.org/2000/svg">
<path d="M26.0004 26.5271H20.5458C20.3047 26.5271 20.0735 26.4312 19.903 26.2606C19.7325 26.0899 19.6367 25.8585 19.6367 25.6172V20.1579C19.6367 19.9166 19.7325 19.6852 19.903 19.5145C20.0735 19.3439 20.3047 19.248 20.5458 19.248H26.0004C26.2415 19.248 26.4727 19.3439 26.6432 19.5145C26.8137 19.6852 26.9094 19.9166 26.9094 20.1579V25.6172C26.9094 25.8585 26.8137 26.0899 26.6432 26.2606C26.4727 26.4312 26.2415 26.5271 26.0004 26.5271ZM21.4549 24.7073H25.0913V21.0678H21.4549V24.7073Z" fill="#9BC156"/>
<path d="M38.3636 26.5271H32.9091C32.668 26.5271 32.4368 26.4312 32.2663 26.2606C32.0958 26.0899 32 25.8585 32 25.6172V20.1579C32 19.9166 32.0958 19.6852 32.2663 19.5145C32.4368 19.3439 32.668 19.248 32.9091 19.248H38.3636C38.6047 19.248 38.836 19.3439 39.0065 19.5145C39.1769 19.6852 39.2727 19.9166 39.2727 20.1579V25.6172C39.2727 25.8585 39.1769 26.0899 39.0065 26.2606C38.836 26.4312 38.6047 26.5271 38.3636 26.5271ZM33.8182 24.7073H37.4545V21.0678H33.8182V24.7073Z" fill="#9BC156"/>
<path d="M38.3636 35.9913H32.9091C32.668 35.9913 32.4368 35.8859 32.2663 35.6982C32.0958 35.5105 32 35.2559 32 34.9904V28.9852C32 28.7198 32.0958 28.4652 32.2663 28.2775C32.4368 28.0898 32.668 27.9844 32.9091 27.9844H38.3636C38.6047 27.9844 38.836 28.0898 39.0065 28.2775C39.1769 28.4652 39.2727 28.7198 39.2727 28.9852V34.9904C39.2727 35.2559 39.1769 35.5105 39.0065 35.6982C38.836 35.8859 38.6047 35.9913 38.3636 35.9913ZM33.8182 33.9896H37.4545V29.9861H33.8182V33.9896Z" fill="#9BC156"/>
<path d="M26.0004 35.9913H20.5458C20.3047 35.9913 20.0735 35.8859 19.903 35.6982C19.7325 35.5105 19.6367 35.2559 19.6367 34.9904V28.9852C19.6367 28.7198 19.7325 28.4652 19.903 28.2775C20.0735 28.0898 20.3047 27.9844 20.5458 27.9844H26.0004C26.2415 27.9844 26.4727 28.0898 26.6432 28.2775C26.8137 28.4652 26.9094 28.7198 26.9094 28.9852V34.9904C26.9094 35.2559 26.8137 35.5105 26.6432 35.6982C26.4727 35.8859 26.2415 35.9913 26.0004 35.9913ZM21.4549 33.9896H25.0913V29.9861H21.4549V33.9896Z" fill="#9BC156"/>
<path d="M13.6371 26.5271H8.18253C7.94142 26.5271 7.71019 26.4312 7.5397 26.2606C7.36922 26.0899 7.27344 25.8585 7.27344 25.6172V20.1579C7.27344 19.9166 7.36922 19.6852 7.5397 19.5145C7.71019 19.3439 7.94142 19.248 8.18253 19.248H13.6371C13.8782 19.248 14.1094 19.3439 14.2799 19.5145C14.4504 19.6852 14.5462 19.9166 14.5462 20.1579V25.6172C14.5462 25.8585 14.4504 26.0899 14.2799 26.2606C14.1094 26.4312 13.8782 26.5271 13.6371 26.5271ZM9.09162 24.7073H12.728V21.0678H9.09162V24.7073Z" fill="#9BC156"/>
<path d="M13.6371 35.9913H8.18253C7.94142 35.9913 7.71019 35.8859 7.5397 35.6982C7.36922 35.5105 7.27344 35.2559 7.27344 34.9904V28.9852C7.27344 28.7198 7.36922 28.4652 7.5397 28.2775C7.71019 28.0898 7.94142 27.9844 8.18253 27.9844H13.6371C13.8782 27.9844 14.1094 28.0898 14.2799 28.2775C14.4504 28.4652 14.5462 28.7198 14.5462 28.9852V34.9904C14.5462 35.2559 14.4504 35.5105 14.2799 35.6982C14.1094 35.8859 13.8782 35.9913 13.6371 35.9913ZM9.09162 33.9896H12.728V29.9861H9.09162V33.9896Z" fill="#9BC156"/>
<path d="M41.8909 40.3586H4.65455C3.42008 40.3586 2.23618 39.8642 1.36328 38.9841C0.490388 38.1039 0 36.9102 0 35.6656V9.38446C0 8.13979 0.490388 6.94609 1.36328 6.06597C2.23618 5.18585 3.42008 4.69141 4.65455 4.69141H8.37818C8.62507 4.69141 8.86186 4.7903 9.03644 4.96632C9.21101 5.14234 9.30909 5.38108 9.30909 5.63002V7.50724C9.30909 8.00511 9.50525 8.48259 9.85441 8.83464C10.2036 9.18668 10.6771 9.38446 11.1709 9.38446C11.6647 9.38446 12.1383 9.18668 12.4874 8.83464C12.8366 8.48259 13.0327 8.00511 13.0327 7.50724V5.63002C13.0327 5.38108 13.1308 5.14234 13.3054 4.96632C13.48 4.7903 13.7167 4.69141 13.9636 4.69141H20.48C20.7269 4.69141 20.9637 4.7903 21.1383 4.96632C21.3128 5.14234 21.4109 5.38108 21.4109 5.63002V7.50724C21.4109 8.00511 21.6071 8.48259 21.9562 8.83464C22.3054 9.18668 22.7789 9.38446 23.2727 9.38446C23.7665 9.38446 24.2401 9.18668 24.5892 8.83464C24.9384 8.48259 25.1345 8.00511 25.1345 7.50724V5.63002C25.1345 5.38108 25.2326 5.14234 25.4072 4.96632C25.5818 4.7903 25.8186 4.69141 26.0655 4.69141H32.5818C32.8287 4.69141 33.0655 4.7903 33.2401 4.96632C33.4146 5.14234 33.5127 5.38108 33.5127 5.63002V7.50724C33.5127 8.00511 33.7089 8.48259 34.058 8.83464C34.4072 9.18668 34.8808 9.38446 35.3745 9.38446C35.8683 9.38446 36.3419 9.18668 36.6911 8.83464C37.0402 8.48259 37.2364 8.00511 37.2364 7.50724V5.63002C37.2364 5.38108 37.3344 5.14234 37.509 4.96632C37.6836 4.7903 37.9204 4.69141 38.1673 4.69141H41.8909C43.1254 4.69141 44.3093 5.18585 45.1822 6.06597C46.0551 6.94609 46.5455 8.13979 46.5455 9.38446V35.6656C46.5455 36.9102 46.0551 38.1039 45.1822 38.9841C44.3093 39.8642 43.1254 40.3586 41.8909 40.3586ZM4.65455 6.56863C3.91387 6.56863 3.20353 6.8653 2.67979 7.39337C2.15605 7.92144 1.86182 8.63766 1.86182 9.38446V35.6656C1.86182 36.4124 2.15605 37.1286 2.67979 37.6567C3.20353 38.1847 3.91387 38.4814 4.65455 38.4814H41.8909C42.6316 38.4814 43.3419 38.1847 43.8657 37.6567C44.3894 37.1286 44.6836 36.4124 44.6836 35.6656V9.38446C44.6836 8.63766 44.3894 7.92144 43.8657 7.39337C43.3419 6.8653 42.6316 6.56863 41.8909 6.56863H39.0982V7.50724C39.0982 8.50298 38.7059 9.45794 38.0076 10.162C37.3092 10.8661 36.3621 11.2617 35.3745 11.2617C34.387 11.2617 33.4399 10.8661 32.7415 10.162C32.0432 9.45794 31.6509 8.50298 31.6509 7.50724V6.56863H26.9964V7.50724C26.9964 8.50298 26.6041 9.45794 25.9057 10.162C25.2074 10.8661 24.2603 11.2617 23.2727 11.2617C22.2852 11.2617 21.338 10.8661 20.6397 10.162C19.9414 9.45794 19.5491 8.50298 19.5491 7.50724V6.56863H14.8945V7.50724C14.8945 8.50298 14.5022 9.45794 13.8039 10.162C13.1056 10.8661 12.1585 11.2617 11.1709 11.2617C10.1833 11.2617 9.23622 10.8661 8.5379 10.162C7.83958 9.45794 7.44727 8.50298 7.44727 7.50724V6.56863H4.65455Z" fill="#9BC156"/>
<path d="M45.6145 16.3361H0.930909C0.684017 16.3361 0.447236 16.2212 0.272657 16.0166C0.0980778 15.812 0 15.5345 0 15.2452C0 14.9559 0.0980778 14.6784 0.272657 14.4738C0.447236 14.2692 0.684017 14.1543 0.930909 14.1543H45.6145C45.8614 14.1543 46.0982 14.2692 46.2728 14.4738C46.4474 14.6784 46.5455 14.9559 46.5455 15.2452C46.5455 15.5345 46.4474 15.812 46.2728 16.0166C46.0982 16.2212 45.8614 16.3361 45.6145 16.3361Z" fill="#9BC156"/>
<path d="M23.2731 11.2428C22.3087 11.2428 21.3837 10.8593 20.7018 10.1768C20.0198 9.49422 19.6367 8.5685 19.6367 7.60324V3.96373C19.6367 2.99847 20.0198 2.07275 20.7018 1.39021C21.3837 0.707666 22.3087 0.324219 23.2731 0.324219C24.2375 0.324219 25.1624 0.707666 25.8444 1.39021C26.5263 2.07275 26.9094 2.99847 26.9094 3.96373V7.60324C26.9094 8.5685 26.5263 9.49422 25.8444 10.1768C25.1624 10.8593 24.2375 11.2428 23.2731 11.2428ZM23.2731 2.14397C22.7909 2.14397 22.3284 2.3357 21.9874 2.67697C21.6465 3.01824 21.4549 3.4811 21.4549 3.96373V7.60324C21.4549 8.08587 21.6465 8.54873 21.9874 8.89C22.3284 9.23127 22.7909 9.423 23.2731 9.423C23.7553 9.423 24.2178 9.23127 24.5587 8.89C24.8997 8.54873 25.0913 8.08587 25.0913 7.60324V3.96373C25.0913 3.4811 24.8997 3.01824 24.5587 2.67697C24.2178 2.3357 23.7553 2.14397 23.2731 2.14397Z" fill="#9BC156"/>
<path d="M35.6364 11.2428C34.6719 11.2428 33.747 10.8593 33.0651 10.1768C32.3831 9.49422 32 8.5685 32 7.60324V3.96373C32 2.99847 32.3831 2.07275 33.0651 1.39021C33.747 0.707666 34.6719 0.324219 35.6364 0.324219C36.6008 0.324219 37.5257 0.707666 38.2077 1.39021C38.8896 2.07275 39.2727 2.99847 39.2727 3.96373V7.60324C39.2727 8.5685 38.8896 9.49422 38.2077 10.1768C37.5257 10.8593 36.6008 11.2428 35.6364 11.2428ZM35.6364 2.14397C35.1542 2.14397 34.6917 2.3357 34.3507 2.67697C34.0097 3.01824 33.8182 3.4811 33.8182 3.96373V7.60324C33.8182 8.08587 34.0097 8.54873 34.3507 8.89C34.6917 9.23127 35.1542 9.423 35.6364 9.423C36.1186 9.423 36.581 9.23127 36.922 8.89C37.263 8.54873 37.4545 8.08587 37.4545 7.60324V3.96373C37.4545 3.4811 37.263 3.01824 36.922 2.67697C36.581 2.3357 36.1186 2.14397 35.6364 2.14397Z" fill="#9BC156"/>
<path d="M10.9098 11.2428C9.94538 11.2428 9.02045 10.8593 8.3385 10.1768C7.65655 9.49422 7.27344 8.5685 7.27344 7.60324V3.96373C7.27344 2.99847 7.65655 2.07275 8.3385 1.39021C9.02045 0.707666 9.94538 0.324219 10.9098 0.324219C11.8742 0.324219 12.7991 0.707666 13.4811 1.39021C14.163 2.07275 14.5462 2.99847 14.5462 3.96373V7.60324C14.5462 8.5685 14.163 9.49422 13.4811 10.1768C12.7991 10.8593 11.8742 11.2428 10.9098 11.2428ZM10.9098 2.14397C10.4276 2.14397 9.96513 2.3357 9.62415 2.67697C9.28318 3.01824 9.09162 3.4811 9.09162 3.96373V7.60324C9.09162 8.08587 9.28318 8.54873 9.62415 8.89C9.96513 9.23127 10.4276 9.423 10.9098 9.423C11.392 9.423 11.8545 9.23127 12.1954 8.89C12.5364 8.54873 12.728 8.08587 12.728 7.60324V3.96373C12.728 3.4811 12.5364 3.01824 12.1954 2.67697C11.8545 2.3357 11.392 2.14397 10.9098 2.14397Z" fill="#9BC156"/>
</svg>
