<svg width="104" height="103" viewBox="0 0 104 103" fill="none" xmlns="http://www.w3.org/2000/svg">
<rect x="0.5" width="103" height="103" rx="51.5" fill="#F4F4F4"/>
<path d="M64.5 51.5C71.4035 51.5 77 45.9035 77 39C77 32.0964 71.4035 26.5 64.5 26.5C57.5965 26.5 52 32.0964 52 39C52 40.9996 52.4695 42.8895 53.3042 44.5656C53.5262 45.011 53.6 45.5201 53.4715 46.0008L52.727 48.7832C52.4038 49.9912 53.5088 51.0962 54.7168 50.773L57.4993 50.0285C57.98 49.9 58.489 49.9737 58.9345 50.1957C60.6105 51.0305 62.5005 51.5 64.5 51.5Z" stroke="#C6D9A4" stroke-width="4"/>
<path d="M58.6113 62.8592L59.7501 61.6604L57.0311 59.0779L55.8923 60.2767L58.6113 62.8592ZM63.4968 61.1557L68.2731 63.9049L70.1438 60.6549L65.3676 57.9057L63.4968 61.1557ZM69.1948 69.6047L65.6433 73.3437L68.3623 75.9262L71.9138 72.1872L69.1948 69.6047ZM63.5066 74.5417C59.9191 74.8959 50.5583 74.5937 40.398 63.8967L37.679 66.4792C48.7523 78.1374 59.3153 78.7237 63.8748 78.2737L63.5066 74.5417ZM40.398 63.8967C30.7077 53.6944 29.0822 45.0888 28.8796 41.3143L25.135 41.5152C25.3831 46.1383 27.3461 55.6007 37.679 66.4792L40.398 63.8967ZM43.8363 47.3039L44.5534 46.5489L41.8344 43.9664L41.1174 44.7213L43.8363 47.3039ZM45.1167 37.1502L41.9642 32.6915L38.9022 34.8564L42.0547 39.3151L45.1167 37.1502ZM31.2942 31.7302L27.3702 35.8615L30.0892 38.444L34.0132 34.3128L31.2942 31.7302ZM42.4768 46.0126C41.1174 44.7213 41.1156 44.7231 41.1139 44.725C41.1133 44.7256 41.1115 44.7275 41.1104 44.7287C41.108 44.7313 41.1056 44.7338 41.1031 44.7365C41.0982 44.7418 41.0931 44.7473 41.0878 44.7531C41.0774 44.7646 41.0662 44.7771 41.0545 44.7905C41.0312 44.8174 41.0055 44.8482 40.978 44.8829C40.923 44.9524 40.8609 45.0377 40.7956 45.1396C40.6649 45.344 40.523 45.6132 40.4029 45.9507C40.1586 46.6372 40.0255 47.5462 40.1919 48.6814C40.5186 50.9117 41.98 53.9109 45.7984 57.9309L48.5173 55.3484C44.9482 51.5907 44.0691 49.2764 43.9022 48.1377C43.8217 47.5884 43.9035 47.2989 43.9359 47.2079C43.9541 47.1569 43.966 47.1427 43.9543 47.1609C43.9487 47.1697 43.9374 47.1862 43.9185 47.2102C43.9091 47.2219 43.8977 47.2359 43.8841 47.2514C43.8773 47.2594 43.8699 47.2677 43.862 47.2764C43.858 47.2807 43.8539 47.2852 43.8496 47.2897C43.8475 47.2922 43.8453 47.2944 43.8431 47.2967C43.842 47.2979 43.8403 47.2997 43.8397 47.3004C43.838 47.3022 43.8363 47.3039 42.4768 46.0126ZM45.7984 57.9309C49.6056 61.9392 52.4808 63.5149 54.6746 63.8712C55.8003 64.0539 56.7116 63.9079 57.4016 63.6359C57.7388 63.5029 58.0056 63.3467 58.2058 63.2047C58.3058 63.1337 58.3891 63.0664 58.4561 63.0077C58.4898 62.9782 58.5193 62.9507 58.5451 62.9257C58.5581 62.9134 58.5701 62.9014 58.5811 62.8904C58.5866 62.8849 58.5918 62.8794 58.5968 62.8742C58.5993 62.8717 58.6018 62.8692 58.6043 62.8667C58.6056 62.8654 58.6073 62.8634 58.6078 62.8629C58.6096 62.8609 58.6113 62.8592 57.2518 61.5679C55.8923 60.2767 55.8941 60.2749 55.8958 60.2732C55.8963 60.2724 55.8981 60.2707 55.8991 60.2694C55.9013 60.2672 55.9036 60.2649 55.9058 60.2627C55.9103 60.2582 55.9146 60.2537 55.9186 60.2494C55.9271 60.2412 55.9351 60.2332 55.9426 60.2259C55.9576 60.2114 55.9713 60.1989 55.9833 60.1884C56.0071 60.1674 56.0248 60.1539 56.0363 60.1459C56.0598 60.1292 56.0573 60.1349 56.0256 60.1474C55.9773 60.1664 55.7501 60.2467 55.2758 60.1697C54.2693 60.0062 52.0978 59.1179 48.5173 55.3484L45.7984 57.9309ZM41.9642 32.6915C39.4302 29.1075 34.3597 28.5029 31.2942 31.7302L34.0132 34.3128C35.3203 32.9367 37.6214 33.0448 38.9022 34.8564L41.9642 32.6915ZM28.8796 41.3143C28.826 40.316 29.2607 39.3163 30.0892 38.444L27.3702 35.8615C26.0306 37.2718 25.0124 39.2311 25.135 41.5152L28.8796 41.3143ZM65.6433 73.3437C64.9458 74.0782 64.2161 74.4717 63.5066 74.5417L63.8748 78.2737C65.7426 78.0892 67.2541 77.0932 68.3623 75.9262L65.6433 73.3437ZM44.5534 46.5489C46.9723 44.0023 47.1436 40.0169 45.1167 37.1502L42.0547 39.3151C43.1101 40.8078 42.9482 42.7937 41.8344 43.9664L44.5534 46.5489ZM68.2731 63.9049C70.3251 65.0862 70.7268 67.9919 69.1948 69.6047L71.9138 72.1872C75.1761 68.7524 74.2261 63.0047 70.1438 60.6549L68.2731 63.9049ZM59.7501 61.6604C60.7136 60.6459 62.2151 60.4179 63.4968 61.1557L65.3676 57.9057C62.6213 56.3249 59.2153 56.7782 57.0311 59.0779L59.7501 61.6604Z" fill="#9BC156"/>
</svg>
