<svg width="104" height="103" viewBox="0 0 104 103" fill="none" xmlns="http://www.w3.org/2000/svg">
<rect x="0.5" width="103" height="103" rx="51.5" fill="#F4F4F4"/>
<path fill-rule="evenodd" clip-rule="evenodd" d="M31.7133 34.5927C30.0134 36.1712 28.875 38.7324 28.875 42.75V60.25C28.875 64.2675 30.0134 66.8287 31.7133 68.4072C33.4384 70.009 36.0374 70.875 39.5 70.875H64.5C67.9625 70.875 70.5615 70.009 72.2867 68.4072C73.9865 66.8287 75.125 64.2675 75.125 60.25V42.75C75.125 38.7324 73.9865 36.1712 72.2867 34.5927C70.5615 32.9909 67.9625 32.125 64.5 32.125H39.5C36.0374 32.125 33.4384 32.9909 31.7133 34.5927ZM29.1616 31.8447C31.8116 29.3841 35.4626 28.375 39.5 28.375H64.5C68.5375 28.375 72.1885 29.3841 74.8382 31.8447C77.5135 34.3288 78.875 38.0176 78.875 42.75V60.25C78.875 64.9825 77.5135 68.6712 74.8382 71.1552C72.1885 73.616 68.5375 74.625 64.5 74.625H39.5C35.4626 74.625 31.8116 73.616 29.1616 71.1552C26.4865 68.6712 25.125 64.9825 25.125 60.25V42.75C25.125 38.0176 26.4865 34.3288 29.1616 31.8447Z" fill="#9BC156"/>
<path fill-rule="evenodd" clip-rule="evenodd" d="M70.4075 39.7755C71.0408 40.5949 70.8898 41.7725 70.0705 42.4056L56.2028 53.1214C53.7268 55.0344 50.2715 55.0344 47.7955 53.1214L33.9279 42.4056C33.1084 41.7725 32.9575 40.5949 33.5906 39.7755C34.2238 38.9561 35.4013 38.8051 36.2208 39.4383L50.0883 50.1539C51.2138 51.0236 52.7845 51.0236 53.9098 50.1539L67.7775 39.4383C68.597 38.8051 69.7745 38.9561 70.4075 39.7755Z" fill="#C6D9A4"/>
</svg>
