<svg width="48" height="48" viewBox="0 0 48 48" fill="none" xmlns="http://www.w3.org/2000/svg">
<path d="M19.636 45.3901L19.6366 45.3903L23.7232 46.8575C23.7719 46.8817 23.8228 46.8909 23.8612 46.8951C23.9032 46.8998 23.9439 46.8998 23.97 46.8998H23.9721H23.9771C24.0148 46.8998 24.0731 46.8999 24.1336 46.883C24.1914 46.867 24.2464 46.8374 24.2975 46.7894L32.4844 43.8597L32.486 43.8591C32.6596 43.7947 32.807 43.7183 32.9131 43.5253L37.9479 35.7888C37.9481 35.7885 37.9483 35.7881 37.9485 35.7878C38.0408 35.6506 38.1082 35.502 38.1082 35.2848V25.7107C38.1082 25.5266 38.043 25.3484 37.9487 25.2079C37.9484 25.2075 37.9481 25.2071 37.9479 25.2067L32.91 17.4355L32.91 17.4355L32.9086 17.4333C32.8531 17.351 32.775 17.2853 32.7004 17.2372C32.6274 17.1902 32.5487 17.1541 32.4799 17.1342L24.2656 14.1646L24.2541 14.1605L24.242 14.1582C24.0642 14.1252 23.9087 14.1241 23.7508 14.1593L23.7416 14.1614L23.7328 14.1645L19.6366 15.6352L19.6357 15.6355L15.5483 17.133C15.3877 17.1716 15.2158 17.2795 15.1364 17.444L10.0765 25.2077C9.97393 25.3604 9.94375 25.5129 9.94375 25.7107V35.2848C9.94375 35.4166 9.97171 35.6312 10.0762 35.7874L15.0877 43.5895L15.0877 43.5895L15.0895 43.5922C15.1449 43.6745 15.2231 43.7402 15.2977 43.7883C15.3706 43.8353 15.4492 43.8714 15.518 43.8913L19.636 45.3901ZM20.1437 43.7279L20.1425 43.7275L16.2823 42.3339L11.5103 35.0002V25.9954L16.2822 18.6916L20.1425 17.298L20.1428 17.2979L23.9723 15.9058L31.7159 18.6917L36.4877 25.9954V35.0301L31.7158 42.334L23.9726 45.1494L20.1437 43.7279Z" fill="#9BC156" stroke="#9BC156" stroke-width="0.3"/>
<path d="M13.4086 30.4842C13.4086 37.0337 18.1225 42.3093 23.9875 42.3093C29.8521 42.3093 34.6204 36.9742 34.6204 30.4842C34.6204 23.9931 29.8511 18.7191 23.9875 18.7191C18.123 18.7191 13.4086 23.9942 13.4086 30.4842ZM15.0021 30.4842C15.0021 24.969 19.0728 20.4598 23.9875 20.4598C28.9567 20.4598 33.0269 24.9696 33.0269 30.4842C33.0269 36.0594 28.9562 40.5686 23.9875 40.5686C19.0467 40.5686 15.0021 36.0603 15.0021 30.4842Z" fill="#9BC156" stroke="#9BC156" stroke-width="0.3"/>
<path d="M42.1228 30.0897L42.1224 30.0895L42.1184 30.0997C41.9988 30.3994 41.9922 30.6857 42.1236 30.9427C42.1238 30.9432 42.124 30.9436 42.1242 30.9441L45.0082 36.8182H35.6823C35.2074 36.8182 34.8586 37.2311 34.8586 37.7186C34.8586 38.206 35.2074 38.6189 35.6823 38.6189H46.3808C46.5184 38.6189 46.6513 38.5799 46.77 38.4918C46.8861 38.4056 46.9805 38.2784 47.055 38.1136C47.1828 37.8613 47.1824 37.5132 47.054 37.2614C47.0537 37.2609 47.0535 37.2604 47.0532 37.2599L43.7449 30.4851L47.0532 23.6509C47.0535 23.6503 47.0538 23.6498 47.0541 23.6492C47.1843 23.3938 47.1803 23.0763 47.0566 22.8007L47.0571 22.8004L47.0505 22.7887C46.8917 22.5057 46.6285 22.352 46.3538 22.352H35.6823C35.2074 22.352 34.8586 22.7649 34.8586 23.2523C34.8586 23.7397 35.2074 24.1526 35.6823 24.1526H45.0092L42.1228 30.0897ZM1.64676 38.6189H12.3182C12.5103 38.6189 12.7135 38.557 12.8715 38.4273C13.0331 38.2947 13.1419 38.0951 13.1419 37.8386C13.1419 37.3512 12.7931 36.9383 12.3182 36.9383H2.96389L5.84725 30.9786C6.00693 30.723 6.0069 30.3978 5.84718 30.1422L2.9644 24.2126H12.3182C12.7931 24.2126 13.1419 23.7997 13.1419 23.3123C13.1419 22.859 12.7968 22.412 12.3182 22.412H1.64676C1.49909 22.412 1.35486 22.4725 1.23692 22.5557C1.11801 22.6396 1.01339 22.755 0.947386 22.8837C0.817717 23.1364 0.817538 23.4869 0.94685 23.7399L4.28225 30.4859L0.946674 37.3213C0.81669 37.5757 0.820177 37.8624 0.942726 38.1373C1.07672 38.4695 1.37865 38.6189 1.64676 38.6189Z" fill="#9BC156" stroke="#9BC156" stroke-width="0.3"/>
<path d="M24.7788 1.17815L24.779 1.17809L24.7762 1.17046C24.6529 0.827102 24.3638 0.560937 23.9883 0.560937C23.6261 0.560937 23.2932 0.815262 23.2224 1.18639L22.232 4.58268H19.0837C18.7105 4.58268 18.4168 4.84689 18.3201 5.20008C18.1983 5.57826 18.3141 5.9779 18.5889 6.17294L21.2021 8.29747L20.1801 11.7412C20.0574 12.1196 20.1728 12.5226 20.4777 12.7178C20.5958 12.815 20.7349 12.8962 20.9162 12.8962C21.1171 12.8962 21.2554 12.8191 21.4087 12.7337L21.4204 12.7271L21.4318 12.7208L21.442 12.7125L24.0422 10.5985L26.6424 12.7125L26.6423 12.7126L26.6476 12.7165C26.9398 12.9335 27.3404 12.9403 27.6147 12.7112L27.615 12.7116L27.6232 12.7035C27.8784 12.4549 27.9745 12.0675 27.8782 11.744L26.9081 8.29842L29.5265 6.16964L29.5268 6.17012L29.5365 6.16068C29.792 5.91171 29.888 5.52363 29.7911 5.1999L29.7913 5.19983L29.7886 5.1922C29.6667 4.85268 29.4064 4.58268 29.0007 4.58268H25.7977L24.7788 1.17815ZM23.9736 4.36638L24.3836 5.73611L24.3834 5.73617L24.3861 5.7438C24.5105 6.09014 24.7742 6.32331 25.1471 6.32331H26.4974L25.4038 7.19659L25.398 7.20121L25.3927 7.20638C25.135 7.45752 25.0432 7.84502 25.137 8.19318L25.137 8.19319L25.1374 8.19469L25.5498 9.66455L24.4606 8.78844C24.3189 8.67051 24.1738 8.63444 23.9883 8.63444C23.822 8.63444 23.6892 8.67429 23.5111 8.77344L23.4994 8.77997L23.489 8.78848L22.4402 9.64801L22.8649 8.22889C22.99 7.84336 22.8664 7.4493 22.6023 7.2287L22.6024 7.22862L22.5982 7.2254L21.5152 6.38334H22.8295C23.1969 6.38334 23.5235 6.1247 23.6211 5.76213L23.6211 5.76213L23.6217 5.75984L23.9736 4.36638Z" fill="#9BC156" stroke="#9BC156" stroke-width="0.3"/>
<path d="M34.0084 14.433L34.0084 14.433L34.0107 14.4346C34.1466 14.5254 34.2876 14.61 34.4713 14.61C34.6399 14.61 34.7694 14.5539 34.924 14.4869C34.953 14.4743 34.983 14.4614 35.0142 14.4483L35.0337 14.4402L35.0502 14.427L37.1662 12.7313L39.2821 14.427L39.2818 14.4274L39.2926 14.4346C39.5924 14.635 39.9726 14.6962 40.2589 14.4204C40.5447 14.1705 40.6406 13.7804 40.5436 13.4565L39.71 10.6713L41.8421 8.93379L41.8425 8.93425L41.852 8.92494C42.1097 8.6738 42.2016 8.2863 42.1078 7.93814L42.1083 7.938L42.1041 7.92645C41.9797 7.58011 41.716 7.34694 41.3431 7.34694H38.76L37.9297 4.57268L37.9268 4.56324L37.9228 4.55426C37.7768 4.22905 37.5209 3.95547 37.1392 3.95547C36.7721 3.95547 36.4458 4.21373 36.3478 4.57588L35.5703 7.34694H32.9353C32.5724 7.34694 32.2713 7.57086 32.1717 7.93432C32.0476 8.31925 32.1712 8.71239 32.4349 8.93264L32.4349 8.93264L32.4363 8.93379L34.5684 10.6713L33.7353 13.4548C33.6117 13.8358 33.7296 14.2389 34.0084 14.433ZM37.8567 10.5673L37.8567 10.5673L37.8579 10.5713L38.098 11.3737L37.5304 10.9222C37.4067 10.8191 37.2663 10.7384 37.0584 10.7384C36.9095 10.7384 36.7186 10.815 36.5708 10.9138L36.5705 10.9133L36.5608 10.9211L35.9918 11.3737L36.2314 10.573C36.3565 10.1874 36.2329 9.79338 35.9688 9.57277L35.9688 9.57275L35.9667 9.57101L35.3283 9.05755H36.0882C36.4556 9.05755 36.7822 8.79892 36.8798 8.43635L36.8798 8.43635L36.8803 8.43461L37.0695 7.69708L37.2919 8.44034L37.2917 8.4404L37.2945 8.44803C37.4178 8.79139 37.7069 9.05755 38.0824 9.05755H38.7615L38.1231 9.57101L38.1176 9.57548L38.1124 9.58047C37.8547 9.8316 37.7629 10.2191 37.8567 10.5673Z" fill="#9BC156" stroke="#9BC156" stroke-width="0.3"/>
<path d="M6.28647 8.93264L6.28646 8.93264L6.28787 8.93379L8.41995 10.6713L7.58685 13.4548C7.46357 13.8349 7.58041 14.2397 7.88821 14.4341C8.17955 14.6471 8.57632 14.6528 8.84898 14.4261L10.9638 12.7313L13.0786 14.426C13.2024 14.5291 13.3429 14.61 13.5509 14.61C13.6302 14.61 13.7103 14.5881 13.7926 14.5614C13.831 14.5489 13.8794 14.5319 13.9338 14.513C13.9882 14.4939 14.0485 14.4729 14.1104 14.4522L14.1386 14.4427L14.1611 14.4233C14.4568 14.1671 14.5133 13.7749 14.4525 13.4702L14.4532 13.4701L14.4491 13.4565L13.6155 10.6713L15.7476 8.93379L15.7479 8.93425L15.7575 8.92494C16.0152 8.6738 16.107 8.2863 16.0132 7.93814L16.0137 7.938L16.0096 7.92645C15.8825 7.57277 15.5875 7.34694 15.2216 7.34694H12.6126L11.8085 4.57392L11.8088 4.57384L11.8056 4.56499C11.6852 4.22952 11.4268 3.95547 11.0447 3.95547C10.678 3.95547 10.352 4.2131 10.2536 4.57456L9.42389 7.34694H6.8138C6.64002 7.34694 6.47361 7.39117 6.33295 7.49086C6.19183 7.59088 6.08685 7.7395 6.02445 7.93059C5.89838 8.31672 6.02194 8.71168 6.28647 8.93264ZM11.7622 10.5673L11.7621 10.5673L11.7633 10.5713L12.0035 11.3737L11.4358 10.9222C11.3084 10.8162 11.1414 10.7384 10.9638 10.7384C10.7634 10.7384 10.5993 10.8147 10.4141 10.9031L10.3987 10.9105L10.3854 10.9211L9.81637 11.3737L10.056 10.573C10.1811 10.1874 10.0575 9.79338 9.79342 9.57277L9.79344 9.57275L9.79127 9.57101L9.15293 9.05755H9.91284C10.28 9.05755 10.6064 8.79922 10.7043 8.43698C10.7043 8.43677 10.7044 8.43656 10.7044 8.43635L10.9099 7.69697L11.1157 8.4375L11.1153 8.43761L11.1191 8.44803C11.2424 8.79139 11.5315 9.05755 11.907 9.05755H12.6669L12.0286 9.57101L12.023 9.57548L12.0179 9.58047C11.7602 9.8316 11.6684 10.2191 11.7622 10.5673Z" fill="#9BC156" stroke="#9BC156" stroke-width="0.3"/>
<path d="M15.9828 30.4847C15.9828 35.4137 19.5381 39.3985 23.9747 39.3985C24.4378 39.3985 24.7984 39.0283 24.7984 38.5582C24.7984 38.0885 24.5185 37.6579 24.0286 37.6579C20.489 37.6579 17.6302 34.4701 17.6302 30.4847C17.6302 29.9932 17.2508 29.5844 16.8065 29.5844C16.3316 29.5844 15.9828 29.9973 15.9828 30.4847Z" fill="#9BC156" stroke="#9BC156" stroke-width="0.3"/>
</svg>
