<svg width="57" height="55" viewBox="0 0 57 55" fill="none" xmlns="http://www.w3.org/2000/svg">
<rect width="57" height="55" rx="27.5" fill="#313332"/>
<path d="M34.5 20C35.3125 20 36 20.6875 36 21.5V32.5C36 33.3438 35.3125 34 34.5 34H30.1875V29.25H32L32.3438 27H30.1875V25.5625C30.1875 24.9375 30.5 24.3438 31.4688 24.3438H32.4375V22.4375C32.4375 22.4375 31.5625 22.2812 30.6875 22.2812C28.9375 22.2812 27.7812 23.375 27.7812 25.3125V27H25.8125V29.25H27.7812V34H23.5C22.6562 34 22 33.3438 22 32.5V21.5C22 20.6875 22.6562 20 23.5 20H34.5Z" fill="white"/>
</svg>
