<svg width="57" height="57" viewBox="0 0 57 57" fill="none" xmlns="http://www.w3.org/2000/svg">
<rect width="57" height="57" rx="28.5" fill="#313332"/>
<path d="M31.24 28C31.24 28.443 31.1086 28.8761 30.8625 29.2445C30.6164 29.6128 30.2665 29.9 29.8572 30.0695C29.4479 30.239 28.9975 30.2834 28.563 30.197C28.1285 30.1105 27.7294 29.8972 27.4161 29.5839C27.1028 29.2706 26.8895 28.8715 26.803 28.437C26.7166 28.0025 26.761 27.5521 26.9305 27.1428C27.1 26.7335 27.3872 26.3836 27.7555 26.1375C28.1239 25.8914 28.557 25.76 29 25.76C29.5939 25.7607 30.1632 25.9969 30.5832 26.4168C31.0031 26.8368 31.2393 27.4061 31.24 28ZM36 24.92V31.08C35.9988 32.1193 35.5854 33.1157 34.8506 33.8506C34.1157 34.5854 33.1193 34.9988 32.08 35H25.92C24.8807 34.9988 23.8843 34.5854 23.1494 33.8506C22.4146 33.1157 22.0012 32.1193 22 31.08V24.92C22.0012 23.8807 22.4146 22.8843 23.1494 22.1494C23.8843 21.4146 24.8807 21.0012 25.92 21H32.08C33.1193 21.0012 34.1157 21.4146 34.8506 22.1494C35.5854 22.8843 35.9988 23.8807 36 24.92ZM32.36 28C32.36 27.3355 32.1629 26.6858 31.7937 26.1333C31.4245 25.5807 30.8998 25.1501 30.2858 24.8958C29.6719 24.6415 28.9963 24.5749 28.3445 24.7046C27.6927 24.8342 27.094 25.1542 26.6241 25.6241C26.1542 26.094 25.8342 26.6927 25.7046 27.3445C25.5749 27.9963 25.6415 28.6719 25.8958 29.2858C26.1501 29.8998 26.5807 30.4245 27.1333 30.7937C27.6858 31.1629 28.3355 31.36 29 31.36C29.8908 31.359 30.7449 31.0047 31.3748 30.3748C32.0047 29.7449 32.359 28.8908 32.36 28ZM33.48 24.36C33.48 24.1939 33.4307 24.0315 33.3384 23.8933C33.2461 23.7552 33.1149 23.6475 32.9615 23.5839C32.808 23.5204 32.6391 23.5037 32.4761 23.5361C32.3132 23.5686 32.1635 23.6486 32.046 23.766C31.9286 23.8835 31.8486 24.0332 31.8161 24.1961C31.7837 24.3591 31.8004 24.528 31.8639 24.6815C31.9275 24.8349 32.0352 24.9661 32.1733 25.0584C32.3115 25.1507 32.4739 25.2 32.64 25.2C32.8628 25.2 33.0764 25.1115 33.234 24.954C33.3915 24.7964 33.48 24.5828 33.48 24.36Z" fill="white"/>
</svg>
