<svg width="48" height="45" viewBox="0 0 48 45" fill="none" xmlns="http://www.w3.org/2000/svg">
<path d="M10.2314 26.834C9.03324 28.4966 8.20954 29.6051 8.20954 29.6051C7.68536 30.1593 7.68536 31.1094 8.20954 31.6636L18.9177 42.9856C19.4419 43.5398 20.3404 43.5398 20.8646 42.9856C20.8646 42.9856 21.913 42.273 23.7101 40.7687" stroke="#9BC156" stroke-width="2"/>
<path d="M20.414 37.2871L16.8945 40.926" stroke="#9BC156" stroke-width="2"/>
<path d="M16.968 33.6445L13.5234 37.3625" stroke="#9BC156" stroke-width="2"/>
<path d="M13.6008 30.082L10.1562 33.721" stroke="#9BC156" stroke-width="2"/>
<path d="M29.7733 17.4922C30.7467 18.5215 39.4331 29.6062 39.4331 29.6062C39.9572 30.1604 39.9572 31.1105 39.4331 31.6647L28.7249 42.9869C28.2007 43.5411 27.3022 43.5411 26.778 42.9869C26.778 42.9869 20.4879 38.3947 11.7267 29.1311C8.35697 25.5682 6.85933 20.976 7.3835 20.4218L18.0917 9.0996C18.4661 8.70372 21.0869 9.33713 23.4832 10.6039" stroke="#9BC156" stroke-width="2" stroke-linecap="round"/>
<path d="M37.6308 26.9135C39.7275 23.9049 40.6261 20.8963 40.1768 20.4213L29.4686 9.09937C28.9444 8.54516 24.152 9.57442 20.7074 13.2164C19.2846 14.7207 16.0647 17.096 14.4922 20.9755C14.4922 20.9755 15.3159 22.4798 17.4875 21.6089C21.0818 20.1838 23.5529 18.7586 23.5529 18.7586C23.5529 18.7586 27.297 20.3421 29.6184 17.571" stroke="#9BC156" stroke-width="2" stroke-linecap="round"/>
<path d="M20.1137 4.82773C20.6378 5.38196 20.6378 6.33206 20.1137 6.88629L6.26047 21.5337C5.7363 22.088 4.83771 22.088 4.31354 21.5337L1.39313 18.4459C0.868956 17.8917 0.868956 16.9416 1.39313 16.3873L15.2463 1.73989C15.7705 1.18566 16.6691 1.18566 17.1933 1.73989L20.1137 4.82773Z" stroke="#9BC156" stroke-width="2"/>
<path d="M27.7525 5.17344C27.2283 5.72767 27.2283 6.67778 27.7525 7.23201L41.6806 21.9587C42.2048 22.5129 43.1033 22.5129 43.6275 21.9587L46.5479 18.8708C47.0721 18.3166 47.0721 17.3665 46.5479 16.8123L32.6198 2.08559C32.0957 1.53136 31.1971 1.53136 30.6729 2.08559L27.7525 5.17344Z" stroke="#9BC156" stroke-width="2"/>
<path d="M21.9102 31.7441L30.6714 40.9284" stroke="#9BC156" stroke-width="2"/>
<path d="M25.3516 28.1016L34.0379 37.3651" stroke="#9BC156" stroke-width="2"/>
<path d="M28.7227 24.5391L37.409 33.7233" stroke="#9BC156" stroke-width="2"/>
</svg>
