<svg width="46" height="38" viewBox="0 0 46 38" fill="none" xmlns="http://www.w3.org/2000/svg">
<path d="M45.5939 26.2572C45.1969 25.5533 44.5367 24.993 43.7256 24.6717C42.9145 24.3504 42.0028 24.2879 41.1455 24.4949L38.6539 25.0972C37.5706 22.6409 35.72 20.5084 33.3183 18.9492C30.9166 17.3901 28.0632 16.4687 25.0918 16.2929V12.7931C25.4382 12.8169 25.7868 12.829 26.1378 12.8295C26.2162 12.8295 26.2949 12.8289 26.3741 12.8276C29.5035 12.7879 32.5222 11.7956 34.923 10.0176C37.3169 8.22664 38.7328 5.85805 38.9098 3.34808C38.9556 2.7075 38.9169 2.06438 38.7942 1.43177C38.7572 1.24211 38.6544 1.06737 38.5 0.931882C38.3456 0.796391 38.1474 0.706879 37.9329 0.6758C37.147 0.562915 36.3512 0.512577 35.5552 0.525387C32.4257 0.565222 29.4071 1.55748 27.0063 3.33549C25.7741 4.24364 24.7664 5.3669 24.0462 6.6352C23.326 5.3669 22.3183 4.24364 21.0861 3.33549C18.6853 1.55749 15.6667 0.565263 12.5372 0.525474C11.7414 0.51239 10.9459 0.562701 10.1603 0.6758C9.9458 0.706879 9.74757 0.796391 9.59319 0.931882C9.43881 1.06737 9.33596 1.24211 9.29895 1.43177C9.17633 2.06438 9.13755 2.7075 9.18339 3.34808C9.3604 5.85796 10.7762 8.22655 13.1702 10.0175C15.571 11.7956 18.5896 12.7878 21.7191 12.8275C21.7979 12.8288 21.8767 12.8294 21.9554 12.8294C22.3059 12.8294 22.6545 12.8172 23.0013 12.793V16.2932C20.5749 16.4349 18.2193 17.075 16.1209 18.1629C14.0225 19.2509 12.2392 20.7566 10.9122 22.5609L7.8687 23.4845V23.2545C7.86808 22.7542 7.64338 22.2746 7.2439 21.9208C6.84442 21.5671 6.30279 21.3681 5.73784 21.3676H2.13086C1.56591 21.3681 1.02428 21.5671 0.624803 21.9208C0.225324 22.2746 0.000622648 22.7542 0 23.2545V35.6685C0.0006226 36.1688 0.22532 36.6484 0.624797 37.0021C1.02427 37.3559 1.5659 37.5549 2.13086 37.5555H5.73784C6.3028 37.5549 6.84443 37.3559 7.24391 37.0021C7.64338 36.6484 7.86808 36.1688 7.8687 35.6685V35.2567L15.5917 36.7776C16.489 36.9541 17.4054 37.0432 18.3246 37.0435H26.0483C27.8895 37.0412 29.708 36.6837 31.3774 35.996L43.7829 30.8656C44.2482 30.673 44.6651 30.3998 45.0092 30.0621C45.3533 29.7245 45.6175 29.3293 45.7863 28.8998C45.9551 28.4703 46.0251 28.0152 45.992 27.5613C45.959 27.1075 45.8237 26.6641 45.5941 26.2573L45.5939 26.2572ZM25.1063 10.1203C25.4016 5.93451 30.1051 2.46079 35.5915 2.37669C36.0024 2.37024 36.4135 2.38348 36.8228 2.41635C36.8422 2.68818 36.8422 2.96081 36.8228 3.23264C36.5276 7.41842 31.824 10.8922 26.3377 10.9762C25.9267 10.9828 25.5157 10.9696 25.1063 10.9367C25.087 10.6648 25.087 10.3921 25.1063 10.1203ZM22.9863 10.9367C22.5769 10.9695 22.1658 10.9827 21.7549 10.9762C16.2687 10.8922 11.5651 7.41842 11.2698 3.23273C11.2504 2.96087 11.2504 2.68821 11.2698 2.41635C11.6791 2.38349 12.0902 2.37025 12.5011 2.37669C17.9874 2.46079 22.6908 5.93452 22.9863 10.1202C23.0056 10.3921 23.0056 10.6648 22.9863 10.9367ZM24.0454 18.1137C26.745 18.1065 29.3854 18.8143 31.6273 20.1461C33.8692 21.4778 35.6102 23.3728 36.6266 25.5874L32.1408 26.6719C31.4679 26.8344 30.7784 26.9371 30.0825 26.9785C30.9686 26.1736 31.9389 25.0405 31.9678 23.3471C31.972 23.0888 31.9182 22.8323 31.8094 22.5925C31.7007 22.3528 31.5392 22.1345 31.3343 21.9505C31.1295 21.7665 30.8853 21.6204 30.6162 21.5207C30.347 21.421 30.0581 21.3697 29.7663 21.3697H29.7612L16.8195 21.3958C16.0325 21.398 15.2475 21.4655 14.4748 21.5977C15.7329 20.4881 17.2259 19.6093 18.8682 19.0115C20.5104 18.4136 22.2698 18.1085 24.0454 18.1137ZM5.77783 35.6685C5.77783 35.6779 5.77363 35.6868 5.76615 35.6935C5.75867 35.7001 5.74852 35.7038 5.73794 35.7038H2.13096C2.12038 35.7038 2.11023 35.7001 2.10275 35.6935C2.09527 35.6868 2.09107 35.6779 2.09107 35.6685V23.2545C2.09109 23.2452 2.09531 23.2362 2.10279 23.2296C2.11026 23.223 2.1204 23.2193 2.13096 23.2193H5.73794C5.7485 23.2193 5.75863 23.223 5.76611 23.2296C5.77359 23.2362 5.77781 23.2452 5.77783 23.2545V35.6685ZM43.8112 28.2917C43.7349 28.4878 43.6146 28.6683 43.4576 28.8223C43.3007 28.9763 43.1102 29.1007 42.8976 29.1879L30.4921 34.3182C29.1 34.8917 27.5835 35.1898 26.0481 35.1917H18.325C17.5584 35.1916 16.7941 35.1172 16.0458 34.9701L7.8687 33.3599V25.4419L13.4438 23.75C14.532 23.4193 15.6742 23.2496 16.8247 23.2476L29.7664 23.2216C29.7812 23.2214 29.7959 23.224 29.8096 23.2291C29.8232 23.2342 29.8356 23.2417 29.8458 23.2512C29.856 23.2601 29.8641 23.2706 29.8695 23.2824C29.8749 23.2941 29.8775 23.3066 29.8772 23.3193C29.8621 24.2015 29.4604 24.9118 28.4908 25.7712C28.0527 26.1618 27.5315 26.4715 26.9572 26.6824C26.383 26.8933 25.7672 27.0013 25.1455 26.9999H18.2127C17.9372 27.0023 17.6738 27.1009 17.4799 27.2742C17.2861 27.4476 17.1773 27.6817 17.1773 27.9257C17.1773 28.1697 17.2861 28.4038 17.4799 28.5772C17.6738 28.7506 17.9372 28.8491 18.2127 28.8515H29.3748C30.4952 28.8516 31.6106 28.7194 32.6915 28.4583L41.6971 26.2812C42.0052 26.2074 42.3302 26.2094 42.6372 26.2871C42.9441 26.3647 43.2212 26.5151 43.4388 26.722C43.6563 26.9289 43.806 27.1844 43.8716 27.461C43.9372 27.7376 43.9164 28.0249 43.8113 28.2918L43.8112 28.2917Z" fill="#9BC156"/>
</svg>
