<svg width="59" height="44" viewBox="0 0 59 44" fill="none" xmlns="http://www.w3.org/2000/svg">
<path d="M0.96875 35.5908H4.84375V41.4033H2.90625V43.3408H8.71875V41.4033H6.78125V35.5908H21.373C21.373 35.7523 21.363 35.9137 21.3428 36.0752C21.3226 36.2367 21.3125 36.4183 21.3125 36.6201C21.3125 38.4769 21.9785 40.0713 23.3105 41.4033C24.6426 42.7354 26.237 43.4014 28.0938 43.4014C29.9505 43.4014 31.5449 42.7354 32.877 41.4033C34.209 40.0713 34.875 38.4769 34.875 36.6201C34.875 36.4183 34.8649 36.2367 34.8447 36.0752C34.8245 35.9137 34.8145 35.7321 34.8145 35.5303V35.5908H40.748C40.748 35.7523 40.738 35.9137 40.7178 36.0752C40.6976 36.2367 40.6875 36.4183 40.6875 36.6201C40.6875 38.4769 41.3535 40.0713 42.6855 41.4033C44.0176 42.7354 45.612 43.4014 47.4688 43.4014C49.3255 43.4014 50.9199 42.7354 52.252 41.4033C53.584 40.0713 54.25 38.4769 54.25 36.6201C54.25 36.4183 54.2399 36.2367 54.2197 36.0752C54.1995 35.9137 54.1895 35.7321 54.1895 35.5303V35.5908H57.1562C57.4388 35.5908 57.6709 35.5 57.8525 35.3184C58.0342 35.1367 58.125 34.9046 58.125 34.6221V19.1221C58.125 18.8395 58.0342 18.6074 57.8525 18.4258C57.6709 18.2441 57.4388 18.1533 57.1562 18.1533H54.25V7.49707C54.25 5.6403 53.584 4.0459 52.252 2.71387C50.9199 1.38184 49.3255 0.71582 47.4688 0.71582H31.9688C30.112 0.71582 28.5176 1.38184 27.1855 2.71387C25.8535 4.0459 25.1875 5.6403 25.1875 7.49707V18.1533H19.375V16.2158H17.4375V18.1533H15.5V20.0908H17.4375V29.7783H0.96875C0.686198 29.7783 0.454102 29.8691 0.272461 30.0508C0.0908203 30.2324 0 30.4645 0 30.7471V34.6221C0 34.9046 0.0908203 35.1367 0.272461 35.3184C0.454102 35.5 0.686198 35.5908 0.96875 35.5908ZM19.375 20.0908H21.3125V33.6533H19.375V20.0908ZM28.0938 41.4033C26.7617 41.4033 25.6214 40.929 24.6729 39.9805C23.7243 39.0319 23.25 37.8916 23.25 36.5596C23.25 35.2275 23.7243 34.0872 24.6729 33.1387C25.6214 32.1901 26.7617 31.7158 28.0938 31.7158C29.4258 31.7158 30.5661 32.1901 31.5146 33.1387C32.4632 34.0872 32.9375 35.2275 32.9375 36.5596C32.9375 37.8916 32.4632 39.0319 31.5146 39.9805C30.5661 40.929 29.4258 41.4033 28.0938 41.4033ZM34.209 33.6533C33.6439 32.4827 32.8164 31.5443 31.7266 30.8379C30.6367 30.1315 29.4258 29.7783 28.0938 29.7783C27.1654 29.7783 26.2773 29.96 25.4297 30.3232C24.582 30.6865 23.8555 31.1911 23.25 31.8369V23.9658H33.9062V22.0283H23.25V20.0908H52.3125V31.8369C51.707 31.1911 50.9805 30.6865 50.1328 30.3232C49.2852 29.96 48.3971 29.7783 47.4688 29.7783C46.1367 29.7783 44.9258 30.1315 43.8359 30.8379C42.7461 31.5443 41.9186 32.4626 41.3535 33.5928V33.6533H34.209ZM47.4688 41.4033C46.1367 41.4033 44.9964 40.929 44.0479 39.9805C43.0993 39.0319 42.625 37.8916 42.625 36.5596C42.625 35.2275 43.0993 34.0872 44.0479 33.1387C44.9964 32.1901 46.1367 31.7158 47.4688 31.7158C48.8008 31.7158 49.9411 32.1901 50.8896 33.1387C51.8382 34.0872 52.3125 35.2275 52.3125 36.5596C52.3125 37.8916 51.8382 39.0319 50.8896 39.9805C49.9411 40.929 48.8008 41.4033 47.4688 41.4033ZM56.1875 33.6533H54.25V20.0908H56.1875V33.6533ZM27.125 7.49707C27.125 6.16504 27.5993 5.02474 28.5479 4.07617C29.4964 3.12761 30.6367 2.65332 31.9688 2.65332H47.4688C48.8008 2.65332 49.9411 3.12761 50.8896 4.07617C51.8382 5.02474 52.3125 6.16504 52.3125 7.49707V18.1533H27.125V7.49707ZM1.9375 31.7158H17.4375V33.6533H1.9375V31.7158ZM28.0938 33.6533C27.2865 33.6533 26.6003 33.9359 26.0352 34.501C25.4701 35.0661 25.1875 35.7523 25.1875 36.5596C25.1875 37.3669 25.4701 38.0531 26.0352 38.6182C26.6003 39.1833 27.2865 39.4658 28.0938 39.4658C28.901 39.4658 29.5872 39.1833 30.1523 38.6182C30.7174 38.0531 31 37.3669 31 36.5596C31 35.7523 30.7174 35.0661 30.1523 34.501C29.5872 33.9359 28.901 33.6533 28.0938 33.6533ZM28.0938 37.5283C27.8112 37.5283 27.5791 37.4375 27.3975 37.2559C27.2158 37.0742 27.125 36.8421 27.125 36.5596C27.125 36.277 27.2158 36.0449 27.3975 35.8633C27.5791 35.6816 27.8112 35.5908 28.0938 35.5908C28.3763 35.5908 28.6084 35.6816 28.79 35.8633C28.9717 36.0449 29.0625 36.277 29.0625 36.5596C29.0625 36.8421 28.9717 37.0742 28.79 37.2559C28.6084 37.4375 28.3763 37.5283 28.0938 37.5283ZM47.4688 33.6533C46.6615 33.6533 45.9753 33.9359 45.4102 34.501C44.8451 35.0661 44.5625 35.7523 44.5625 36.5596C44.5625 37.3669 44.8451 38.0531 45.4102 38.6182C45.9753 39.1833 46.6615 39.4658 47.4688 39.4658C48.276 39.4658 48.9622 39.1833 49.5273 38.6182C50.0924 38.0531 50.375 37.3669 50.375 36.5596C50.375 35.7523 50.0924 35.0661 49.5273 34.501C48.9622 33.9359 48.276 33.6533 47.4688 33.6533ZM47.4688 37.5283C47.1862 37.5283 46.9541 37.4375 46.7725 37.2559C46.5908 37.0742 46.5 36.8421 46.5 36.5596C46.5 36.277 46.5908 36.0449 46.7725 35.8633C46.9541 35.6816 47.1862 35.5908 47.4688 35.5908C47.7513 35.5908 47.9834 35.6816 48.165 35.8633C48.3467 36.0449 48.4375 36.277 48.4375 36.5596C48.4375 36.8421 48.3467 37.0742 48.165 37.2559C47.9834 37.4375 47.7513 37.5283 47.4688 37.5283ZM45.834 26.5693C45.9147 26.6501 46.0156 26.7207 46.1367 26.7812C46.2578 26.8418 46.3789 26.8721 46.5 26.8721H50.375V24.9346H46.9238L44.2598 22.3311C44.179 22.2503 44.0781 22.1797 43.957 22.1191C43.8359 22.0586 43.7148 22.0283 43.5938 22.0283H36.8125V23.9658H43.1699L45.834 26.5693ZM43.5938 25.9033H39.7188C39.5977 25.9033 39.4766 25.9336 39.3555 25.9941C39.2344 26.0547 39.1335 26.1253 39.0527 26.2061L37.3574 27.8408H32.9375V29.7783H37.7812C37.9023 29.7783 38.0234 29.748 38.1445 29.6875C38.2656 29.627 38.3665 29.5563 38.4473 29.4756L40.1426 27.8408H43.5938V25.9033ZM25.1875 25.9033H31V27.8408H25.1875V25.9033ZM35.8438 8.46582C35.9648 8.46582 36.0859 8.43555 36.207 8.375C36.3281 8.31445 36.429 8.24382 36.5098 8.16309L38.4473 6.22559L37.1152 4.89355L35.8438 6.10449L34.5723 4.89355C34.4915 4.81282 34.3906 4.74219 34.2695 4.68164C34.1484 4.62109 34.0273 4.59082 33.9062 4.59082C33.7852 4.59082 33.6641 4.62109 33.543 4.68164C33.4219 4.74219 33.321 4.81282 33.2402 4.89355L31.9688 6.10449L30.6973 4.89355L29.3652 6.22559L31.3027 8.16309C31.3835 8.24382 31.4844 8.31445 31.6055 8.375C31.7266 8.43555 31.8477 8.46582 31.9688 8.46582C32.0898 8.46582 32.2109 8.43555 32.332 8.375C32.4531 8.31445 32.554 8.24382 32.6348 8.16309L33.9062 6.95215L35.1777 8.16309C35.2585 8.24382 35.3594 8.31445 35.4805 8.375C35.6016 8.43555 35.7227 8.46582 35.8438 8.46582ZM47.4688 8.04199L46.1973 6.83105C46.1165 6.75032 46.0156 6.67969 45.8945 6.61914C45.7734 6.55859 45.6523 6.52832 45.5312 6.52832C45.4102 6.52832 45.2891 6.55859 45.168 6.61914C45.0469 6.67969 44.946 6.75032 44.8652 6.83105L43.5938 8.04199L42.3223 6.83105L40.9902 8.16309L42.9277 10.1006C43.0085 10.1813 43.1094 10.252 43.2305 10.3125C43.3516 10.373 43.4727 10.4033 43.5938 10.4033C43.7148 10.4033 43.8359 10.373 43.957 10.3125C44.0781 10.252 44.179 10.1813 44.2598 10.1006L45.5312 8.88965L46.8027 10.1006C46.8835 10.1813 46.9844 10.252 47.1055 10.3125C47.2266 10.373 47.3477 10.4033 47.4688 10.4033C47.5898 10.4033 47.7109 10.373 47.832 10.3125C47.9531 10.252 48.054 10.1813 48.1348 10.1006L50.0723 8.16309L48.7402 6.83105L47.4688 8.04199ZM40.6875 13.8545L39.416 12.6436C39.3353 12.5628 39.2344 12.4922 39.1133 12.4316C38.9922 12.3711 38.8711 12.3408 38.75 12.3408C38.6289 12.3408 38.5078 12.3711 38.3867 12.4316C38.2656 12.4922 38.1647 12.5628 38.084 12.6436L36.8125 13.8545L35.541 12.6436L34.209 13.9756L36.1465 15.9131C36.2272 15.9938 36.3281 16.0645 36.4492 16.125C36.5703 16.1855 36.6914 16.2158 36.8125 16.2158C36.9336 16.2158 37.0547 16.1855 37.1758 16.125C37.2969 16.0645 37.3978 15.9938 37.4785 15.9131L38.75 14.7021L40.0215 15.9131C40.1022 15.9938 40.2031 16.0645 40.3242 16.125C40.4453 16.1855 40.5664 16.2158 40.6875 16.2158C40.8086 16.2158 40.9297 16.1855 41.0508 16.125C41.1719 16.0645 41.2728 15.9938 41.3535 15.9131L43.291 13.9756L41.959 12.6436L40.6875 13.8545ZM47.4688 14.2783H49.4062V16.2158H47.4688V14.2783ZM29.0625 10.4033H31V12.3408H29.0625V10.4033Z" fill="#9BC156"/>
</svg>
