<svg width="59" height="35" viewBox="0 0 59 35" fill="none" xmlns="http://www.w3.org/2000/svg">
<path id="Vector" d="M57.6406 0.243164C57.5599 0.202801 57.4792 0.172527 57.3984 0.152344C57.3177 0.13216 57.237 0.12207 57.1562 0.12207C57.0755 0.12207 56.9847 0.13216 56.8838 0.152344C56.7829 0.172527 56.6921 0.22298 56.6113 0.303711L50.7988 4.17871C50.7988 4.17871 50.7887 4.17871 50.7686 4.17871C50.7484 4.17871 50.7383 4.19889 50.7383 4.23926L36.8125 15.501V2.05957C36.8125 1.77702 36.7217 1.54492 36.54 1.36328C36.3584 1.18164 36.1263 1.09082 35.8438 1.09082H10.6562C10.3737 1.09082 10.1416 1.18164 9.95996 1.36328C9.77832 1.54492 9.6875 1.77702 9.6875 2.05957V8.84082H0.96875C0.686198 8.84082 0.454102 8.93164 0.272461 9.11328C0.0908203 9.29492 0 9.52702 0 9.80957V19.4971C0 19.6182 0.0302734 19.7393 0.0908203 19.8604C0.151367 19.9814 0.222005 20.0824 0.302734 20.1631L9.6875 29.6084V32.0908C9.6875 32.8981 9.97005 33.5843 10.5352 34.1494C11.1003 34.7145 11.7865 34.9971 12.5938 34.9971H33.9062C34.7135 34.9971 35.3997 34.7145 35.9648 34.1494C36.5299 33.5843 36.8125 32.8981 36.8125 32.0908V30.4561L51.5254 11.2021L56.5508 15.3799C56.6315 15.4606 56.7223 15.5212 56.8232 15.5615C56.9242 15.6019 57.0352 15.6221 57.1562 15.6221C57.4388 15.6221 57.6709 15.5312 57.8525 15.3496C58.0342 15.168 58.125 14.9359 58.125 14.6533V1.09082C58.125 0.888996 58.0745 0.717449 57.9736 0.576172C57.8727 0.434895 57.7617 0.323895 57.6406 0.243164ZM9.6875 21.0107L5.8125 17.1357V14.6533H9.6875V21.0107ZM11.625 6.90332H34.875V8.84082H11.625V6.90332ZM34.875 3.02832V4.96582H11.625V3.02832H34.875ZM1.9375 19.0732V10.7783H9.6875V12.7158H4.84375C4.5612 12.7158 4.3291 12.8066 4.14746 12.9883C3.96582 13.1699 3.875 13.402 3.875 13.6846V17.5596C3.875 17.6807 3.90527 17.8018 3.96582 17.9229C4.02637 18.0439 4.09701 18.1449 4.17773 18.2256L9.6875 23.7959V26.8232L1.9375 19.0732ZM34.875 32.0908C34.875 32.3734 34.7842 32.6055 34.6025 32.7871C34.4209 32.9688 34.1888 33.0596 33.9062 33.0596H12.5938C12.3112 33.0596 12.0791 32.9688 11.8975 32.7871C11.7158 32.6055 11.625 32.3734 11.625 32.0908V10.7783H34.875V32.0908ZM36.8125 18.0439L50.375 7.02441V9.50684L36.8125 27.3076V18.0439ZM56.1875 12.5947L52.3125 9.38574V5.51074L56.1875 2.90723V12.5947ZM15.5 19.4971H13.5625V30.1533C13.5625 30.4359 13.6533 30.668 13.835 30.8496C14.0166 31.0312 14.2487 31.1221 14.5312 31.1221H19.375V29.1846H15.5V19.4971ZM21.3125 29.1846H23.25V31.1221H21.3125V29.1846Z" fill="#9BC156"/>
</svg>
