<svg width="59" height="32" viewBox="0 0 59 32" fill="none" xmlns="http://www.w3.org/2000/svg">
<path id="Vector" d="M49.8301 20.8408L47.8926 18.9033H35.8438V20.8408H47.0449L48.9824 22.7783H54.25V20.8408H49.8301ZM29.6074 25.6846H21.3125V27.6221H30.4551L32.3926 25.6846H37.7812V23.7471H31.5449L29.6074 25.6846ZM30.0312 14.0596H33.9062V15.9971H30.0312V14.0596ZM8.71875 14.0596C7.34635 14.0596 6.19596 14.7155 5.26758 16.0273C4.33919 17.3392 3.875 18.9437 3.875 20.8408C3.875 22.738 4.33919 24.3424 5.26758 25.6543C6.19596 26.9661 7.34635 27.6221 8.71875 27.6221C10.0911 27.6221 11.2415 26.9661 12.1699 25.6543C13.0983 24.3424 13.5625 22.738 13.5625 20.8408C13.5625 18.9437 13.0983 17.3392 12.1699 16.0273C11.2415 14.7155 10.0911 14.0596 8.71875 14.0596ZM8.71875 25.6846C7.91146 25.6846 7.22526 25.2103 6.66016 24.2617C6.09505 23.3132 5.8125 22.1729 5.8125 20.8408C5.8125 19.5088 6.09505 18.3685 6.66016 17.4199C7.22526 16.4714 7.91146 15.9971 8.71875 15.9971C9.52604 15.9971 10.2122 16.4714 10.7773 17.4199C11.3424 18.3685 11.625 19.5088 11.625 20.8408C11.625 22.1729 11.3424 23.3132 10.7773 24.2617C10.2122 25.2103 9.52604 25.6846 8.71875 25.6846ZM49.4062 10.1846H46.6211C46.7018 9.61947 46.8532 9.09473 47.0752 8.61035C47.2972 8.12598 47.5697 7.68197 47.8926 7.27832H51.3438C52.6758 7.27832 53.8161 6.80404 54.7646 5.85547C55.7132 4.9069 56.1875 3.7666 56.1875 2.43457V1.46582H51.3438C50.0924 1.46582 49.0026 1.88965 48.0742 2.7373C47.1458 3.58496 46.6413 4.63444 46.5605 5.88574C46.0358 6.49121 45.612 7.14713 45.2891 7.85352C44.9661 8.5599 44.7441 9.31673 44.623 10.124V10.1846H40.4453L38.5078 4.37207H31.2422L29.3047 10.1846H22.4023C22.4023 10.1442 22.4023 10.1139 22.4023 10.0938C22.4023 10.0736 22.4023 10.0635 22.4023 10.0635C22.4023 8.93327 22.1198 7.89388 21.5547 6.94531C20.9896 5.99674 20.2428 5.26009 19.3145 4.73535C19.153 3.52441 18.6182 2.5153 17.71 1.70801C16.8018 0.900717 15.7422 0.49707 14.5312 0.49707H9.6875V1.46582C9.6875 2.79785 10.1618 3.93815 11.1104 4.88672C12.0589 5.83529 13.1992 6.30957 14.5312 6.30957H18.1641C18.8503 6.67285 19.4053 7.17741 19.8291 7.82324C20.2529 8.46908 20.4648 9.19564 20.4648 10.0029C20.4648 10.0433 20.4648 10.0736 20.4648 10.0938C20.4648 10.1139 20.4648 10.1442 20.4648 10.1846H8.71875C6.29688 10.1846 4.23828 11.224 2.54297 13.3027C0.847656 15.3815 0 17.8942 0 20.8408C0 23.7874 0.847656 26.3001 2.54297 28.3789C4.23828 30.4577 6.29688 31.4971 8.71875 31.4971H49.4062C51.8281 31.4971 53.8867 30.4577 55.582 28.3789C57.2773 26.3001 58.125 23.7874 58.125 20.8408C58.125 17.8942 57.2773 15.3815 55.582 13.3027C53.8867 11.224 51.8281 10.1846 49.4062 10.1846ZM51.3438 3.40332H54.0684C53.8665 3.96842 53.5234 4.43262 53.0391 4.7959C52.5547 5.15918 51.9896 5.34082 51.3438 5.34082H48.6191C48.821 4.77572 49.1641 4.31152 49.6484 3.94824C50.1328 3.58496 50.6979 3.40332 51.3438 3.40332ZM14.5312 4.37207C13.8854 4.37207 13.3203 4.19043 12.8359 3.82715C12.3516 3.46387 12.0085 2.99967 11.8066 2.43457H14.5312C15.1771 2.43457 15.7422 2.61621 16.2266 2.97949C16.7109 3.34277 17.054 3.80697 17.2559 4.37207H14.5312ZM1.9375 20.8408C1.9375 18.4189 2.60352 16.3604 3.93555 14.665C5.26758 12.9697 6.86198 12.1221 8.71875 12.1221C10.5755 12.1221 12.1699 12.9697 13.502 14.665C14.834 16.3604 15.5 18.4189 15.5 20.8408C15.5 23.2627 14.834 25.3213 13.502 27.0166C12.1699 28.7119 10.5755 29.5596 8.71875 29.5596C6.86198 29.5596 5.26758 28.7119 3.93555 27.0166C2.60352 25.3213 1.9375 23.2627 1.9375 20.8408ZM55.4609 24.7158H42.625V26.6533H54.4316C53.9069 27.501 53.2005 28.1872 52.3125 28.7119C51.4245 29.2367 50.4557 29.5192 49.4062 29.5596H13.7441C14.7936 28.5908 15.6413 27.4404 16.2871 26.1084C16.9329 24.7764 17.2962 23.3434 17.377 21.8096H25.6113L27.5488 19.8721H31V17.9346H26.7012L24.7637 19.8721H17.377C17.3366 19.1455 17.2357 18.4593 17.0742 17.8135C16.9128 17.1676 16.7109 16.542 16.4688 15.9365V15.9971H26.1562V14.0596H15.4395C15.1973 13.6963 14.9349 13.3532 14.6523 13.0303C14.3698 12.7074 14.0671 12.4046 13.7441 12.1221H30.7578L32.6953 6.30957H37.0547L38.3867 10.1846H34.875V12.1221H49.4062C50.2539 12.1221 51.041 12.3037 51.7676 12.667C52.4941 13.0303 53.1198 13.4945 53.6445 14.0596H39.7188V15.9971H55.0371C55.4004 16.6833 55.6829 17.43 55.8848 18.2373C56.0866 19.0446 56.1875 19.8923 56.1875 20.7803C56.1875 20.7803 56.1875 20.7904 56.1875 20.8105C56.1875 20.8307 56.1875 20.8408 56.1875 20.8408C56.1875 21.5674 56.127 22.2536 56.0059 22.8994C55.8848 23.5452 55.7031 24.1709 55.4609 24.7764V24.7158Z" fill="#9BC156"/>
</svg>
