<svg width="59" height="52" viewBox="0 0 59 52" fill="none" xmlns="http://www.w3.org/2000/svg">
<path d="M4.84375 43.4346C4.84375 45.5739 5.60059 47.4004 7.11426 48.9141C8.62793 50.4277 10.4544 51.1846 12.5938 51.1846C14.7331 51.1846 16.5596 50.4277 18.0732 48.9141C19.5869 47.4004 20.3438 45.5739 20.3438 43.4346C20.3438 41.2952 19.5869 39.4688 18.0732 37.9551C16.5596 36.4414 14.7331 35.6846 12.5938 35.6846C10.4544 35.6846 8.62793 36.4414 7.11426 37.9551C5.60059 39.4688 4.84375 41.2952 4.84375 43.4346ZM12.5938 37.6221C14.2083 37.6221 15.5807 38.1872 16.7109 39.3174C17.8411 40.4476 18.4062 41.82 18.4062 43.4346C18.4062 45.0492 17.8411 46.4215 16.7109 47.5518C15.5807 48.682 14.2083 49.2471 12.5938 49.2471C10.9792 49.2471 9.60677 48.682 8.47656 47.5518C7.34635 46.4215 6.78125 45.0492 6.78125 43.4346C6.78125 41.82 7.34635 40.4476 8.47656 39.3174C9.60677 38.1872 10.9792 37.6221 12.5938 37.6221ZM12.5938 47.3096C13.6836 47.3096 14.6019 46.9362 15.3486 46.1895C16.0954 45.4427 16.4688 44.5244 16.4688 43.4346C16.4688 42.3447 16.0954 41.4264 15.3486 40.6797C14.6019 39.9329 13.6836 39.5596 12.5938 39.5596C11.5039 39.5596 10.5856 39.9329 9.83887 40.6797C9.09212 41.4264 8.71875 42.3447 8.71875 43.4346C8.71875 44.5244 9.09212 45.4427 9.83887 46.1895C10.5856 46.9362 11.5039 47.3096 12.5938 47.3096ZM12.5938 41.4971C13.1185 41.4971 13.5726 41.6888 13.9561 42.0723C14.3395 42.4557 14.5312 42.9098 14.5312 43.4346C14.5312 43.9593 14.3395 44.4134 13.9561 44.7969C13.5726 45.1803 13.1185 45.3721 12.5938 45.3721C12.069 45.3721 11.6149 45.1803 11.2314 44.7969C10.848 44.4134 10.6562 43.9593 10.6562 43.4346C10.6562 42.9098 10.848 42.4557 11.2314 42.0723C11.6149 41.6888 12.069 41.4971 12.5938 41.4971ZM40.6875 47.3096C42.8268 47.3096 44.6533 46.5527 46.167 45.0391C47.6807 43.5254 48.4375 41.6989 48.4375 39.5596C48.4375 37.4202 47.6807 35.5938 46.167 34.0801C44.6533 32.5664 42.8268 31.8096 40.6875 31.8096C38.5482 31.8096 36.7217 32.5664 35.208 34.0801C33.6943 35.5938 32.9375 37.4202 32.9375 39.5596C32.9375 41.6989 33.6943 43.5254 35.208 45.0391C36.7217 46.5527 38.5482 47.3096 40.6875 47.3096ZM38.084 38.2881C38.0033 38.4899 37.9326 38.6917 37.8721 38.8936C37.8115 39.0954 37.7812 39.3174 37.7812 39.5596C37.7812 39.8018 37.8115 40.0238 37.8721 40.2256C37.9326 40.4274 38.0033 40.6292 38.084 40.8311L35.9648 42.9502C35.6016 42.4658 35.3291 41.9411 35.1475 41.376C34.9658 40.8109 34.875 40.2054 34.875 39.5596C34.875 38.9137 34.9759 38.3083 35.1777 37.7432C35.3796 37.1781 35.6419 36.6533 35.9648 36.1689L38.084 38.2881ZM41.6562 39.5596C41.6562 39.8421 41.5654 40.0742 41.3838 40.2559C41.2021 40.4375 40.9701 40.5283 40.6875 40.5283C40.4049 40.5283 40.1729 40.4375 39.9912 40.2559C39.8096 40.0742 39.7188 39.8421 39.7188 39.5596C39.7188 39.277 39.8096 39.0449 39.9912 38.8633C40.1729 38.6816 40.4049 38.5908 40.6875 38.5908C40.9701 38.5908 41.2021 38.6816 41.3838 38.8633C41.5654 39.0449 41.6562 39.277 41.6562 39.5596ZM37.2969 44.2822L39.416 42.1631C39.6178 42.2438 39.8197 42.3145 40.0215 42.375C40.2233 42.4355 40.4453 42.4658 40.6875 42.4658C40.9297 42.4658 41.1517 42.4355 41.3535 42.375C41.5553 42.3145 41.7572 42.2438 41.959 42.1631L44.0781 44.2822C43.5938 44.6455 43.069 44.918 42.5039 45.0996C41.9388 45.2812 41.3333 45.3721 40.6875 45.3721C40.0417 45.3721 39.4362 45.2712 38.8711 45.0693C38.306 44.8675 37.7812 44.6051 37.2969 44.2822ZM45.4102 42.9502L43.291 40.8311C43.3717 40.6292 43.4424 40.4274 43.5029 40.2256C43.5635 40.0238 43.5938 39.8018 43.5938 39.5596C43.5938 39.3174 43.5635 39.0954 43.5029 38.8936C43.4424 38.6917 43.3717 38.4899 43.291 38.2881L45.4102 36.1689C45.7734 36.6533 46.0459 37.1781 46.2275 37.7432C46.4092 38.3083 46.5 38.9137 46.5 39.5596C46.5 40.2054 46.3991 40.8109 46.1973 41.376C45.9954 41.9411 45.7331 42.4658 45.4102 42.9502ZM44.0781 34.8369L41.959 36.9561C41.7572 36.8753 41.5553 36.8047 41.3535 36.7441C41.1517 36.6836 40.9297 36.6533 40.6875 36.6533C40.4453 36.6533 40.2233 36.6836 40.0215 36.7441C39.8197 36.8047 39.6178 36.8753 39.416 36.9561L37.2969 34.8369C37.7812 34.4736 38.306 34.2012 38.8711 34.0195C39.4362 33.8379 40.0417 33.7471 40.6875 33.7471C41.3333 33.7471 41.9388 33.848 42.5039 34.0498C43.069 34.2516 43.5938 34.514 44.0781 34.8369ZM57.1562 33.7471H54.25V22.1221H52.1914L50.4961 6.62207H51.3438C51.6263 6.62207 51.8584 6.53125 52.04 6.34961C52.2217 6.16797 52.3125 5.93587 52.3125 5.65332C52.3125 5.61296 52.3125 5.57259 52.3125 5.53223C52.3125 5.49186 52.2923 5.4515 52.252 5.41113H52.3125L51.3438 1.53613C51.263 1.33431 51.1419 1.16276 50.9805 1.02148C50.819 0.880207 50.6172 0.80957 50.375 0.80957H25.1875C24.9453 0.80957 24.7435 0.880207 24.582 1.02148C24.4206 1.16276 24.3197 1.33431 24.2793 1.53613H24.2188L23.25 5.41113C23.25 5.4515 23.25 5.49186 23.25 5.53223C23.25 5.57259 23.25 5.61296 23.25 5.65332C23.25 5.93587 23.3408 6.16797 23.5225 6.34961C23.7041 6.53125 23.9362 6.62207 24.2188 6.62207H25.0664L23.3711 22.1221H15.5V9.52832C15.5 9.40723 15.4697 9.28613 15.4092 9.16504C15.3486 9.04395 15.278 8.94304 15.1973 8.8623L10.3535 4.01855C10.2728 3.93782 10.1719 3.86719 10.0508 3.80664C9.92969 3.74609 9.80859 3.71582 9.6875 3.71582C9.56641 3.71582 9.44531 3.74609 9.32422 3.80664C9.20312 3.86719 9.10221 3.93782 9.02148 4.01855L6.11523 6.9248C6.03451 7.00554 5.96387 7.10645 5.90332 7.22754C5.84277 7.34863 5.8125 7.46973 5.8125 7.59082C5.8125 7.71191 5.84277 7.83301 5.90332 7.9541C5.96387 8.0752 6.03451 8.17611 6.11523 8.25684L9.6875 11.8896V22.1221H0.96875C0.686198 22.1221 0.454102 22.2129 0.272461 22.3945C0.0908203 22.5762 0 22.8083 0 23.0908V38.5908C0 38.8734 0.0908203 39.1055 0.272461 39.2871C0.454102 39.4688 0.686198 39.5596 0.96875 39.5596H4.84375C5.1263 39.5596 5.3584 39.4688 5.54004 39.2871C5.72168 39.1055 5.8125 38.8734 5.8125 38.5908V35.6846H19.375V38.5908C19.375 38.8734 19.4658 39.1055 19.6475 39.2871C19.8291 39.4688 20.0612 39.5596 20.3438 39.5596H28.0938C28.3763 39.5596 28.6084 39.4688 28.79 39.2871C28.9717 39.1055 29.0625 38.8734 29.0625 38.5908V35.1396L30.9395 33.2021C30.3743 34.1305 29.9202 35.1296 29.5771 36.1992C29.234 37.2689 29.0625 38.389 29.0625 39.5596C29.0625 42.7887 30.2028 45.5436 32.4834 47.8242C34.764 50.1048 37.4987 51.2451 40.6875 51.2451C43.9167 51.2451 46.6716 50.1048 48.9521 47.8242C51.2327 45.5436 52.373 42.7887 52.373 39.5596C52.373 36.3708 51.2327 33.6361 48.9521 31.3555C46.6716 29.0749 43.9167 27.9346 40.6875 27.9346C39.5169 27.9346 38.3867 28.1061 37.2969 28.4492C36.207 28.7923 35.2181 29.2666 34.3301 29.8721V29.8115L36.2676 27.9346H52.3125V38.5908C52.3125 38.8734 52.4033 39.1055 52.585 39.2871C52.7666 39.4688 52.9987 39.5596 53.2812 39.5596H57.1562C57.4388 39.5596 57.6709 39.4688 57.8525 39.2871C58.0342 39.1055 58.125 38.8734 58.125 38.5908V34.7158C58.125 34.4333 58.0342 34.2012 57.8525 34.0195C57.6709 33.8379 57.4388 33.7471 57.1562 33.7471ZM50.375 39.5596C50.375 42.2236 49.4264 44.5042 47.5293 46.4014C45.6322 48.2985 43.3516 49.2471 40.6875 49.2471C38.0234 49.2471 35.7428 48.2985 33.8457 46.4014C31.9486 44.5042 31 42.2236 31 39.5596C31 36.8955 31.9486 34.6149 33.8457 32.7178C35.7428 30.8206 38.0234 29.8721 40.6875 29.8721C43.3516 29.8721 45.6322 30.8206 47.5293 32.7178C49.4264 34.6149 50.375 36.8955 50.375 39.5596ZM25.9141 2.74707H49.6484L50.1328 4.68457H25.4297L25.9141 2.74707ZM27.0039 6.62207H48.5586L50.2539 22.1221H25.3086L27.0039 6.62207ZM23.25 24.0596H31.5449L23.25 32.3545V24.0596ZM8.17383 7.59082L9.6875 6.07715L13.5625 9.95215V16.3096H11.625V11.4658C11.625 11.3447 11.5947 11.2236 11.5342 11.1025C11.4736 10.9814 11.403 10.8805 11.3223 10.7998L8.17383 7.59082ZM11.625 18.2471H13.5625V22.1221H11.625V18.2471ZM1.9375 24.0596H3.875V33.7471H1.9375V24.0596ZM3.875 37.6221H1.9375V35.6846H3.875V37.6221ZM5.8125 33.7471V24.0596H21.3125V33.7471H5.8125ZM27.125 37.6221H21.3125V35.6846H27.125V37.6221ZM35.8438 25.9971C35.7227 25.9971 35.6016 26.0273 35.4805 26.0879C35.3594 26.1484 35.2585 26.2191 35.1777 26.2998L27.6699 33.7471H24.6426L34.3301 24.0596H52.3125V25.9971H35.8438ZM56.1875 37.6221H54.25V35.6846H56.1875V37.6221ZM7.75 25.9971H9.6875V30.8408H7.75V25.9971ZM11.625 25.9971H13.5625V30.8408H11.625V25.9971ZM15.5 25.9971H17.4375V30.8408H15.5V25.9971ZM47.4688 20.1846C47.7513 20.1846 47.9834 20.0938 48.165 19.9121C48.3467 19.7305 48.4375 19.4984 48.4375 19.2158C48.4375 19.2158 48.4375 19.2057 48.4375 19.1855C48.4375 19.1654 48.4375 19.1351 48.4375 19.0947L47.4688 9.40723C47.4284 9.16504 47.3174 8.96321 47.1357 8.80176C46.9541 8.6403 46.7422 8.55957 46.5 8.55957H29.0625C28.8203 8.55957 28.6084 8.6403 28.4268 8.80176C28.2451 8.96321 28.1341 9.16504 28.0938 9.40723L27.125 19.0947C27.125 19.1351 27.125 19.1654 27.125 19.1855C27.125 19.2057 27.125 19.2158 27.125 19.2158C27.125 19.4984 27.2158 19.7305 27.3975 19.9121C27.5791 20.0938 27.8112 20.1846 28.0938 20.1846H47.4688ZM45.6523 10.4971L46.3789 18.2471H42.5645L41.7773 10.4971H45.6523ZM29.1836 18.2471L29.9102 10.4971H39.8398L40.5664 18.2471H29.1836Z" fill="#9BC156"/>
</svg>
