<svg width="13" height="13" viewBox="0 0 13 13" fill="none" xmlns="http://www.w3.org/2000/svg">
<path d="M10.9375 0.625C11.6484 0.625 12.25 1.22656 12.25 1.9375V11.5625C12.25 12.3008 11.6484 12.875 10.9375 12.875H1.3125C0.574219 12.875 0 12.3008 0 11.5625V1.9375C0 1.22656 0.574219 0.625 1.3125 0.625H10.9375ZM2.57031 11.125C6.94531 11.125 10.5 7.59766 10.5 3.19531C10.5 3.00391 10.3633 2.83984 10.1719 2.8125L8.39453 2.40234C8.36719 2.40234 8.33984 2.375 8.3125 2.375C8.12109 2.375 7.98438 2.48438 7.92969 2.64844L7.10938 4.5625C7.08203 4.58984 7.05469 4.64453 7.05469 4.69922C7.05469 4.83594 7.13672 4.94531 7.21875 5.02734L8.25781 5.875C7.62891 7.1875 6.5625 8.28125 5.22266 8.91016L4.375 7.87109C4.29297 7.78906 4.18359 7.73438 4.04688 7.73438C3.99219 7.73438 3.9375 7.73438 3.91016 7.76172L1.99609 8.58203C1.83203 8.63672 1.75 8.77344 1.75 8.9375C1.75 8.99219 1.75 9.01953 1.75 9.04688L2.16016 10.8242C2.1875 11.0156 2.35156 11.125 2.57031 11.125Z" fill="#9BC156"/>
</svg>
